<svg width="260" height="209" viewBox="0 0 260 209" fill="none" xmlns="http://www.w3.org/2000/svg">
<g clip-path="url(#clip0_830_7786)">
<path d="M249.769 182.535H0V185.289H249.769V182.535Z" fill="#3F3D56"/>
<path d="M249.769 205.944H0V208.698H249.769V205.944Z" fill="#3F3D56"/>
<path d="M228.223 185.069C228.074 184.825 224.554 178.948 223.334 166.744C222.215 155.548 222.934 136.676 232.722 110.351C251.263 60.4797 228.449 20.2411 228.215 19.8403L229.341 19.1873C229.4 19.2889 235.287 29.5482 238.765 45.8845C243.36 67.5431 241.687 90.0627 233.941 110.804C215.431 160.59 229.192 184.158 229.333 184.391L228.223 185.069Z" fill="#3F3D56"/>
<path d="M220.973 16.9118C225.643 16.9118 229.429 13.126 229.429 8.45592C229.429 3.78585 225.643 0 220.973 0C216.303 0 212.517 3.78585 212.517 8.45592C212.517 13.126 216.303 16.9118 220.973 16.9118Z" fill="#3F3D56"/>
<path d="M247.641 48.1338C252.312 48.1338 256.097 44.3479 256.097 39.6778C256.097 35.0078 252.312 31.2219 247.641 31.2219C242.971 31.2219 239.186 35.0078 239.186 39.6778C239.186 44.3479 242.971 48.1338 247.641 48.1338Z" fill="#3F3D56"/>
<path d="M229.429 68.9482C234.099 68.9482 237.885 65.1624 237.885 60.4923C237.885 55.8222 234.099 52.0364 229.429 52.0364C224.758 52.0364 220.973 55.8222 220.973 60.4923C220.973 65.1624 224.758 68.9482 229.429 68.9482Z" fill="#F98614"/>
<path d="M251.544 86.5105C256.214 86.5105 260 82.7246 260 78.0546C260 73.3845 256.214 69.5986 251.544 69.5986C246.874 69.5986 243.088 73.3845 243.088 78.0546C243.088 82.7246 246.874 86.5105 251.544 86.5105Z" fill="#F98614"/>
<path d="M222.924 113.83C227.594 113.83 231.38 110.044 231.38 105.374C231.38 100.704 227.594 96.918 222.924 96.918C218.254 96.918 214.468 100.704 214.468 105.374C214.468 110.044 218.254 113.83 222.924 113.83Z" fill="#3F3D56"/>
<path d="M233.331 185.38C233.331 185.38 224.875 164.565 250.243 148.954L233.331 185.38Z" fill="#3F3D56"/>
<path d="M222.932 185.002C222.932 185.002 219.084 162.868 189.298 163.057L222.932 185.002Z" fill="#3F3D56"/>
<path d="M41.5267 130.361C48.4155 130.361 53.9999 124.776 53.9999 117.887C53.9999 110.999 48.4155 105.414 41.5267 105.414C34.6379 105.414 29.0535 110.999 29.0535 117.887C29.0535 124.776 34.6379 130.361 41.5267 130.361Z" fill="#FFB6B6"/>
<path d="M43.7866 102.373C41.4012 101.787 38.8362 101.69 36.5252 102.522C34.1452 103.379 32.186 105.171 30.745 107.25C29.3041 109.33 28.3363 111.696 27.4694 114.073C26.9638 115.368 26.5724 116.706 26.2998 118.07C25.9889 119.888 26.0488 121.751 26.4757 123.545C26.9027 125.34 27.6879 127.029 28.7844 128.513C28.4191 127.55 29.3387 126.5 30.3474 126.291C31.3561 126.083 32.3836 126.435 33.3783 126.702C35.1311 127.173 36.943 127.386 38.757 127.335C39.452 127.315 40.1805 127.245 40.7584 126.859C42.569 125.648 41.6106 122.519 43.1172 120.946C43.6549 120.385 44.4222 120.122 45.1152 119.77C47.61 118.503 49.2539 115.945 50.0301 113.256C50.5165 111.571 51.7238 106.731 50.6948 105.164C49.765 103.749 45.366 102.761 43.7866 102.373Z" fill="#2F2E41"/>
<path d="M75.4681 104.133C74.5467 103.81 73.5705 103.671 72.5954 103.726C71.6204 103.78 70.6656 104.026 69.7859 104.45C66.5323 105.976 60.7785 109.673 60.9971 116.67C61.3014 126.405 64.6478 132.794 64.6478 132.794L64.0394 152.569L60.9971 188.467C60.9971 188.467 46.0901 200.636 51.8704 203.679C57.6507 206.721 67.3859 189.076 67.3859 189.076L74.9915 168.693L77.7295 148.918C77.7295 148.918 82.2929 128.231 77.7295 119.104C77.7295 119.104 83.0013 106.883 75.4681 104.133Z" fill="#FFB6B6"/>
<path d="M111.803 135.532C111.803 135.532 106.631 157.436 124.885 163.521C143.138 169.605 167.172 179.949 167.172 179.949L170.214 185.121L177.211 175.69L175.994 168.389L164.13 165.042C164.13 165.042 141.921 148.005 132.186 146.789L133.403 135.532H111.803Z" fill="#FFB6B6"/>
<path d="M160.42 117.953L166.868 128.535C166.868 128.535 188.163 140.704 193.639 148.918C199.115 157.132 212.197 165.955 212.197 165.955L206.417 179.645C206.417 179.645 189.989 160.479 182.992 158.654C175.994 156.828 144.963 131.882 144.963 131.882L160.42 117.953Z" fill="#FFB6B6"/>
<path d="M103.001 80.8687C100.626 81.2418 98.2498 81.6152 95.9036 82.1384C90.4525 83.3541 85.2108 85.3682 80.094 87.6068C72.9333 90.7399 65.9783 94.3235 59.2707 98.3359C57.4617 99.369 55.7358 100.541 54.1083 101.841C53.0254 102.743 52.0058 103.777 51.4249 105.061C51.0561 105.958 50.8174 106.903 50.7162 107.867C50.2445 111.25 50.2665 114.74 51.183 118.031C52.0996 121.321 53.9586 124.406 56.6951 126.45C57.4192 127.008 58.2234 127.454 59.0806 127.773C60.2336 128.124 61.4275 128.324 62.6322 128.368C66.4707 128.673 70.4806 128.953 74.0327 127.466C76.2899 126.522 78.2009 124.925 80.2779 123.631C89.0739 118.152 100.249 118.386 109.867 114.528C110.802 114.154 111.754 113.716 112.408 112.95C112.903 112.293 113.276 111.552 113.509 110.763C114.725 107.398 115.941 104.032 117.157 100.667C117.928 98.5344 118.699 96.4005 119.346 94.2273C120.022 91.9541 120.561 89.6428 121.1 87.3331C121.563 85.3455 122.041 83.2638 121.862 81.2091C121.6 78.1783 120.899 78.0553 118.116 78.494C113.078 79.288 108.04 80.0795 103.001 80.8687Z" fill="#F98614"/>
<path d="M66.3413 104.133C65.42 103.81 64.4438 103.671 63.4687 103.726C62.4937 103.78 61.5389 104.026 60.6592 104.45C57.4056 105.976 51.6518 109.673 51.8704 116.67C52.1746 126.405 55.5211 132.794 55.5211 132.794L54.9127 152.569L51.8704 188.467C51.8704 188.467 36.9634 200.636 42.7437 203.679C48.5239 206.721 58.2591 189.076 58.2591 189.076L65.8648 168.693L68.6028 148.918C68.6028 148.918 73.1662 128.231 68.6028 119.104C68.6028 119.104 73.8746 106.883 66.3413 104.133Z" fill="#FFB6B6"/>
<path d="M119.153 78.3512C119.153 78.3512 146.18 75.9041 144.963 92.6364C143.746 109.369 134.62 138.27 134.62 138.27L111.194 139.487C111.194 139.487 108.152 119.712 112.411 113.02L119.153 78.3512Z" fill="#2F2E41"/>
<path d="M137.966 83.814C137.966 83.814 144.659 88.0731 148.31 96.5914C151.96 105.11 162.913 121.842 162.913 121.842L144.963 134.62L131.577 120.929L137.966 83.814Z" fill="#2F2E41"/>
<path d="M170.214 178.732C170.214 178.732 164.434 180.862 168.389 185.121C170.818 187.764 172.866 190.734 174.473 193.944C174.473 193.944 173.256 201.853 178.428 201.549C183.6 201.245 185.729 190.597 184.513 186.946C183.296 183.296 181.774 165.955 181.774 165.955C181.774 165.955 171.127 166.868 171.431 168.389C171.735 169.91 173.256 177.515 170.214 178.732Z" fill="#2F2E41"/>
<path d="M206.417 172.648C206.417 172.648 200.941 175.386 202.462 177.82C203.983 180.253 208.85 187.251 208.85 187.251C208.85 187.251 207.025 196.377 212.197 197.29C217.369 198.203 220.411 186.338 219.498 183.904C218.586 181.47 218.586 172.039 218.586 172.039C218.586 172.039 218.89 162.608 215.848 162.608C212.805 162.608 207.634 163.825 207.634 163.825C207.634 163.825 208.85 172.344 206.417 172.648Z" fill="#2F2E41"/>
<path d="M38.0281 187.972H29.2056V203.37H38.0281V187.972Z" fill="#F98614"/>
</g>
<defs>
<clipPath id="clip0_830_7786">
<rect width="260" height="208.698" fill="white"/>
</clipPath>
</defs>
</svg>
