<svg width="330" height="150" viewBox="0 0 330 150" fill="none" xmlns="http://www.w3.org/2000/svg">
<g clip-path="url(#clip0_830_7601)">
<path d="M98.1759 123.505C97.0414 132.686 92.8696 141.086 88.4191 149.178C88.272 149.453 88.1206 149.724 87.9655 150H41.7097C40.7742 149.749 39.8507 149.474 38.9312 149.178C33.7067 147.535 28.7744 145.029 24.326 141.756C7.3085 129.093 0.760168 105.164 3.7179 83.7223C5.55703 70.401 11.2175 56.8002 22.24 49.6256C28.0598 45.8306 35.5355 44.5972 42.2351 46.0074C42.4104 46.0403 42.5855 46.0814 42.7645 46.1184C48.5286 47.4588 53.6636 50.7891 56.5856 56.1546C61.84 65.7961 58.7112 77.7401 56.1279 88.4712C53.5523 99.2022 52.1549 112.047 59.6308 119.961C57.1627 112.458 59.5989 103.507 65.4944 98.4333C69.9487 94.6055 76.1507 93.1706 81.8073 94.3588C82.3486 94.4781 82.8821 94.6138 83.4075 94.7782C84.6774 95.1623 85.9018 95.6919 87.0578 96.357C95.875 101.443 99.4458 113.157 98.1759 123.505Z" fill="#F2F2F2"/>
<path d="M70.749 149.178C72.0307 149.486 73.3164 149.757 74.6101 150H67.6161C66.7004 149.745 65.7888 149.474 64.8854 149.178C62.899 148.536 60.9431 147.8 59.0178 146.97C51.2952 143.623 44.1817 138.599 38.7998 131.913C36.1677 128.675 34.0183 125.048 32.4227 121.154C30.6925 116.752 29.5929 112.113 29.1587 107.384C28.1833 97.681 29.1785 87.7106 31.0374 78.1801C32.9559 68.3023 36.0526 58.7082 40.2568 49.6174C40.7624 48.5279 41.2851 47.4452 41.8252 46.3693C41.8623 46.2807 41.9186 46.2021 41.9896 46.1394C42.0606 46.0767 42.1446 46.0316 42.2351 46.0075C42.4189 45.9707 42.6092 46.0106 42.7646 46.1185C42.951 46.229 43.0892 46.4092 43.1507 46.6219C43.2122 46.8346 43.1923 47.0635 43.095 47.2615C38.7603 55.9926 35.4744 65.238 33.3104 74.7922C31.1927 84.113 29.9906 93.8655 30.4005 103.449C30.7906 112.404 33.0558 121.211 38.1947 128.534C42.888 135.219 49.3685 140.49 56.5378 144.079C61.0756 146.322 65.8424 148.032 70.749 149.178Z" fill="white"/>
<path d="M86.0986 150H84.0365C83.8056 149.729 83.5826 149.453 83.3638 149.178C78.6669 143.283 75.4851 136.261 74.1125 128.76C72.4456 119.399 73.7423 109.732 77.8106 101.192C78.9456 98.7975 80.283 96.5108 81.8072 94.3589C82.3485 94.4781 82.8821 94.6138 83.4075 94.7783C79.3983 100.265 76.7017 106.652 75.5376 113.42C74.4992 119.761 74.8444 126.262 76.5482 132.449C78.252 138.635 81.2714 144.35 85.386 149.178C85.6167 149.453 85.8556 149.729 86.0986 150Z" fill="white"/>
<path d="M271.854 143.008C272.153 145.431 273.254 147.648 274.429 149.783C274.467 149.856 274.507 149.927 274.548 150H286.756C287.003 149.934 287.247 149.861 287.489 149.783C288.868 149.349 290.17 148.688 291.344 147.824C295.835 144.482 297.563 138.167 296.783 132.508C296.297 128.992 294.804 125.403 291.895 123.509C290.315 122.516 288.43 122.175 286.617 122.554C286.571 122.563 286.525 122.574 286.478 122.584C285.723 122.734 285.008 123.048 284.379 123.505C283.751 123.961 283.223 124.55 282.83 125.233C281.443 127.777 282.269 130.929 282.951 133.761C283.631 136.594 283.999 139.983 282.026 142.072C282.316 141.199 282.374 140.261 282.197 139.357C282.019 138.452 281.611 137.612 281.015 136.924C280.419 136.236 279.656 135.725 278.806 135.442C277.955 135.159 277.046 135.115 276.174 135.315C276.031 135.347 275.89 135.383 275.751 135.426C275.416 135.527 275.093 135.667 274.788 135.843C272.461 137.185 271.519 140.276 271.854 143.008Z" fill="#F2F2F2"/>
<path d="M279.092 149.783C278.754 149.864 278.415 149.936 278.073 150H279.919C280.161 149.933 280.401 149.861 280.64 149.783C281.164 149.614 281.68 149.42 282.188 149.2C284.249 148.336 286.079 146.973 287.524 145.227C288.219 144.372 288.786 143.415 289.207 142.387C289.664 141.225 289.954 140.001 290.069 138.753C290.278 136.173 290.111 133.574 289.573 131.045C289.066 128.439 288.249 125.906 287.14 123.507C287.006 123.22 286.868 122.934 286.726 122.65C286.716 122.627 286.701 122.606 286.682 122.589C286.664 122.573 286.641 122.561 286.617 122.555C286.569 122.545 286.519 122.555 286.478 122.584C286.429 122.613 286.392 122.661 286.376 122.717C286.36 122.773 286.365 122.833 286.391 122.885C287.535 125.19 288.402 127.63 288.973 130.151C289.561 132.625 289.819 135.169 289.741 137.715C289.699 140.082 288.983 142.384 287.684 144.335C286.42 146.091 284.758 147.5 282.843 148.438C281.645 149.029 280.387 149.481 279.092 149.783Z" fill="white"/>
<path d="M275.041 150H275.585C275.646 149.929 275.705 149.856 275.763 149.783C277.002 148.228 277.842 146.374 278.204 144.394C278.644 141.924 278.302 139.373 277.228 137.119C276.929 136.487 276.576 135.883 276.174 135.315C276.031 135.347 275.89 135.383 275.751 135.426C276.809 136.874 277.521 138.56 277.828 140.346C278.102 142.02 278.011 143.735 277.562 145.368C277.112 147.001 276.315 148.509 275.229 149.783C275.168 149.856 275.105 149.929 275.041 150Z" fill="white"/>
<path d="M161.819 87.3729H123.612L123.207 75.2396C123.19 74.7136 123.283 74.19 123.48 73.7047C123.677 73.2194 123.974 72.784 124.349 72.4285C124.725 72.073 125.171 71.8058 125.656 71.6452C126.141 71.4847 126.655 71.4347 127.16 71.4987L149.394 74.3107H149.397C152.693 74.3199 155.852 75.6782 158.18 78.088C160.508 80.4979 161.817 83.7628 161.819 87.1674V87.3729Z" fill="#F98614"/>
<path d="M144.79 44.334H118.143C117.788 44.3339 117.437 44.4059 117.11 44.5459C116.782 44.686 116.485 44.8913 116.234 45.1501C115.984 45.4089 115.785 45.7162 115.649 46.0544C115.514 46.3926 115.444 46.7551 115.444 47.1212V74.6445C115.444 75.0105 115.514 75.373 115.649 75.7112C115.785 76.0494 115.984 76.3567 116.234 76.6156C116.485 76.8744 116.782 77.0797 117.11 77.2197C117.437 77.3597 117.788 77.4318 118.143 77.4317H144.79C145.145 77.4318 145.496 77.3598 145.823 77.2197C146.151 77.0797 146.448 76.8744 146.699 76.6156C146.949 76.3567 147.148 76.0494 147.284 75.7112C147.419 75.373 147.489 75.0105 147.489 74.6445V47.1212C147.489 46.7551 147.419 46.3926 147.284 46.0544C147.148 45.7162 146.949 45.4089 146.699 45.1501C146.448 44.8913 146.151 44.686 145.823 44.5459C145.496 44.4059 145.145 44.3339 144.79 44.334Z" fill="#CCCCCC"/>
<path d="M138.789 64.9149L126.207 67.4455C125.461 67.5947 124.688 67.4321 124.058 66.9933C123.427 66.5544 122.991 65.8753 122.845 65.1048L121.878 59.9752C121.733 59.2044 121.891 58.4058 122.316 57.7548C122.741 57.1037 123.398 56.6533 124.144 56.5024L136.726 53.9718C137.472 53.8226 138.245 53.9852 138.875 54.424C139.506 54.8628 139.942 55.542 140.088 56.3125L141.055 61.4421C141.2 62.2129 141.042 63.0114 140.617 63.6625C140.192 64.3136 139.535 64.764 138.789 64.9149Z" fill="#3F3D56"/>
<path d="M136.272 58.8549L126.67 60.7861C126.494 60.8214 126.312 60.7833 126.164 60.68C126.016 60.5767 125.913 60.4168 125.879 60.2354C125.845 60.054 125.882 59.866 125.982 59.7127C126.082 59.5595 126.237 59.4535 126.412 59.4182L136.014 57.487C136.189 57.4516 136.371 57.4898 136.52 57.5931C136.668 57.6964 136.771 57.8563 136.805 58.0377C136.839 58.2191 136.802 58.4071 136.702 58.5604C136.602 58.7136 136.447 58.8195 136.272 58.8549Z" fill="white"/>
<path d="M134.405 61.7147L129.439 62.7137C129.263 62.749 129.081 62.7108 128.933 62.6075C128.785 62.5042 128.682 62.3443 128.648 62.1629C128.614 61.9815 128.651 61.7935 128.751 61.6403C128.851 61.487 129.005 61.3811 129.181 61.3458L134.147 60.3468C134.234 60.3293 134.324 60.3297 134.411 60.3479C134.498 60.3661 134.58 60.4018 134.654 60.453C134.727 60.5041 134.79 60.5697 134.839 60.646C134.888 60.7223 134.922 60.8078 134.939 60.8976C134.956 60.9874 134.955 61.0798 134.938 61.1695C134.92 61.2591 134.885 61.3443 134.836 61.4202C134.786 61.4961 134.723 61.5612 134.649 61.6117C134.575 61.6622 134.492 61.6972 134.405 61.7147Z" fill="white"/>
<path d="M147.489 47.1212V50.7793H115.444V47.1212C115.444 46.7551 115.514 46.3926 115.649 46.0544C115.785 45.7162 115.984 45.4089 116.234 45.1501C116.485 44.8913 116.782 44.686 117.11 44.5459C117.437 44.4059 117.788 44.3339 118.143 44.334H144.79C145.145 44.3339 145.496 44.4059 145.823 44.5459C146.151 44.686 146.448 44.8913 146.699 45.1501C146.949 45.4089 147.148 45.7162 147.284 46.0544C147.419 46.3926 147.489 46.7551 147.489 47.1212Z" fill="#B3B3B3"/>
<path d="M211.479 51.9249C211.294 51.3081 210.98 50.7407 210.56 50.2626C210.14 49.7846 209.623 49.4076 209.046 49.1581C208.47 48.9086 207.847 48.7927 207.223 48.8186C206.598 48.8445 205.986 49.0115 205.431 49.308L168.77 35.7224L167.155 45.1819L203.699 55.5616C204.243 56.4922 205.099 57.1845 206.104 57.5071C207.109 57.8298 208.194 57.7604 209.153 57.3121C210.112 56.8639 210.878 56.0679 211.307 55.0749C211.736 54.082 211.797 52.9612 211.479 51.9249Z" fill="#FFB8B8"/>
<path opacity="0.2" d="M211.479 51.9249C211.294 51.3081 210.98 50.7407 210.56 50.2626C210.14 49.7846 209.623 49.4076 209.046 49.1581C208.47 48.9086 207.847 48.7927 207.223 48.8186C206.598 48.8445 205.986 49.0115 205.431 49.308L168.77 35.7224L167.155 45.1819L203.699 55.5616C204.243 56.4922 205.099 57.1845 206.104 57.5071C207.109 57.8298 208.194 57.7604 209.153 57.3121C210.112 56.8639 210.878 56.0679 211.307 55.0749C211.736 54.082 211.797 52.9612 211.479 51.9249Z" fill="black"/>
<path d="M175.277 37.4462L171.815 46.7877C171.717 47.0535 171.564 47.2942 171.367 47.4935C171.17 47.6928 170.934 47.8459 170.675 47.9425C170.416 48.0392 170.14 48.0769 169.865 48.0533C169.591 48.0297 169.324 47.9452 169.084 47.8056L160.67 42.9144C159.357 42.3861 158.3 41.3413 157.731 40.0092C157.162 38.6771 157.127 37.1662 157.635 35.8079C158.143 34.4497 159.151 33.3548 160.439 32.7633C161.728 32.1719 163.19 32.1321 164.507 32.6527L173.902 34.8049C174.171 34.8666 174.424 34.9875 174.644 35.1593C174.863 35.3311 175.045 35.5497 175.175 35.8004C175.306 36.051 175.382 36.3278 175.4 36.6118C175.417 36.8958 175.376 37.1804 175.277 37.4462Z" fill="#F98614"/>
<path d="M214.365 60.5745L201.228 66.7417L202.953 73.448C206.283 86.3983 207.167 99.8901 205.556 113.186L215.161 115.258L223.122 94.2889L220.336 70.4421L214.365 60.5745Z" fill="#F98614"/>
<path d="M240.14 91.6165C231.509 91.6165 224.475 98.097 224.134 106.212H256.146C255.804 98.097 248.771 91.6165 240.14 91.6165Z" fill="#3F3D56"/>
<path d="M233.421 93.0151C232.972 56.3821 212.772 59.7523 212.772 59.7523C212.772 59.7523 213.15 71.1549 213.332 71.5095C226.203 96.6636 204.96 126.153 177.919 120.728C177.41 120.626 176.92 120.522 176.45 120.417C173.024 119.678 169.999 117.619 167.99 114.658C165.981 111.698 165.14 108.058 165.637 104.479C168.301 82.3858 155.052 82.7768 155.052 82.7768H135.679L125.619 73.4248C125.264 73.0947 124.836 72.8594 124.372 72.7397C123.909 72.6199 123.424 72.6192 122.96 72.7377C122.496 72.8562 122.068 73.0902 121.712 73.4194C121.356 73.7485 121.083 74.1627 120.918 74.6257L119.624 78.2541C119.624 78.2541 100.517 80.3099 102.109 99.634H108.016C108.002 100.183 108.023 100.732 108.08 101.279L152.167 100.908C154.751 100.887 157.032 103.05 157.042 105.719C157.045 106.369 156.921 107.012 156.677 107.611C156.433 108.21 156.075 108.753 155.624 109.205C155.172 109.658 154.637 110.012 154.05 110.246C153.464 110.481 152.837 110.59 152.208 110.569L145.1 110.324C142.911 120.397 148.285 127.181 154.206 131.447C159.781 135.405 166.397 137.503 173.161 137.46H192.471C217.549 137.46 221.928 115.669 221.928 115.669C235.064 109.913 233.421 93.0151 233.421 93.0151Z" fill="#312F47"/>
<path d="M238.945 149.383C251.312 149.383 261.337 139.029 261.337 126.256C261.337 113.483 251.312 103.129 238.945 103.129C226.579 103.129 216.554 113.483 216.554 126.256C216.554 139.029 226.579 149.383 238.945 149.383Z" fill="#312F47"/>
<path d="M238.945 131.925C241.976 131.925 244.433 129.387 244.433 126.256C244.433 123.126 241.976 120.588 238.945 120.588C235.914 120.588 233.457 123.126 233.457 126.256C233.457 129.387 235.914 131.925 238.945 131.925Z" fill="white"/>
<path d="M125.893 149.383C140.129 149.383 151.669 137.464 151.669 122.761C151.669 108.058 140.129 96.1392 125.893 96.1392C111.658 96.1392 100.118 108.058 100.118 122.761C100.118 137.464 111.658 149.383 125.893 149.383Z" fill="#312F47"/>
<path d="M125.894 129.286C129.383 129.286 132.211 126.365 132.211 122.761C132.211 119.157 129.383 116.236 125.894 116.236C122.405 116.236 119.576 119.157 119.576 122.761C119.576 126.365 122.405 129.286 125.894 129.286Z" fill="white"/>
<path d="M201.266 68.564L196.539 55.3046C196.293 54.6135 196.181 53.8791 196.209 53.1433C196.238 52.4075 196.406 51.6847 196.705 51.0162C197.004 50.3476 197.427 49.7465 197.951 49.247C198.475 48.7475 199.089 48.3594 199.758 48.105L213.309 42.9528C214.486 42.505 215.737 42.3012 216.99 42.3528C218.244 42.4045 219.475 42.7106 220.614 43.2538C221.753 43.797 222.777 44.5665 223.628 45.5185C224.479 46.4705 225.14 47.5864 225.574 48.8023C225.965 49.8936 226.164 51.0481 226.163 52.2117C226.158 53.6892 225.835 55.147 225.216 56.4791C224.597 57.8112 223.698 58.9841 222.586 59.9126C221.782 60.5786 220.878 61.1048 219.91 61.4705L201.266 68.564Z" fill="#3F3D56"/>
<path d="M225.964 52.2118C225.963 53.6592 225.648 55.0879 225.042 56.3929C224.435 57.6978 223.554 58.8458 222.461 59.7523C220.785 59.2957 219.225 58.4675 217.891 57.3254C216.556 56.1832 215.478 54.7545 214.731 53.1386C213.985 51.5226 213.589 49.7582 213.569 47.9679C213.55 46.1776 213.908 44.4045 214.619 42.7717C215.985 42.4651 217.399 42.4781 218.759 42.81C220.119 43.1418 221.39 43.784 222.478 44.6894C223.566 45.5948 224.444 46.7404 225.047 48.0421C225.65 49.3438 225.964 50.7686 225.964 52.2118Z" fill="#F98614"/>
<path d="M105.492 102.306C108.57 102.306 111.065 99.177 111.065 95.3167C111.065 91.4565 108.57 88.3271 105.492 88.3271C102.415 88.3271 99.9194 91.4565 99.9194 95.3167C99.9194 99.177 102.415 102.306 105.492 102.306Z" fill="#F98614"/>
<path d="M179.16 120.058H184.04L186.362 106.985L179.159 106.985L179.16 120.058Z" fill="#FFB8B8"/>
<path d="M177.915 118.413L187.526 118.412H187.526C188.33 118.412 189.127 118.576 189.87 118.894C190.613 119.212 191.288 119.677 191.857 120.265C192.426 120.852 192.877 121.55 193.185 122.317C193.493 123.085 193.651 123.907 193.651 124.738V124.944L177.915 124.944L177.915 118.413Z" fill="#2F2E41"/>
<path d="M184.824 114.693C184.768 114.693 184.71 114.69 184.653 114.684L177.899 114.176C177.626 114.15 177.363 114.059 177.129 113.911C176.895 113.763 176.697 113.562 176.55 113.322C176.404 113.083 176.313 112.812 176.284 112.53C176.255 112.248 176.289 111.963 176.383 111.697L185.422 90.7225C185.486 90.5355 185.513 90.3367 185.499 90.1387C185.486 89.9406 185.433 89.7476 185.344 89.5718C185.255 89.3938 185.13 89.2374 184.978 89.1127C184.827 88.988 184.651 88.8978 184.463 88.8482C180.213 87.7007 169.308 84.6452 159.868 81.0701C155.824 79.5383 153.276 77.3247 152.297 74.4908C151.006 70.7547 152.916 67.3475 152.998 67.2046L153.062 67.0925L161.945 67.9265L171.575 68.7725L192.678 80.4606C194.446 81.4483 195.789 83.0877 196.44 85.0523C197.09 87.0169 197 89.1625 196.188 91.0618L186.459 113.596C186.318 113.922 186.089 114.2 185.799 114.394C185.509 114.589 185.17 114.692 184.824 114.693Z" fill="#2F2E41"/>
<path d="M163.489 26.4293C168.889 26.4293 173.266 21.9081 173.266 16.331C173.266 10.7538 168.889 6.23267 163.489 6.23267C158.09 6.23267 153.712 10.7538 153.712 16.331C153.712 21.9081 158.09 26.4293 163.489 26.4293Z" fill="#FFB8B8"/>
<path d="M176.373 121.292H181.254L183.576 108.218L176.372 108.219L176.373 121.292Z" fill="#FFB8B8"/>
<path d="M175.128 119.646L184.739 119.646H184.74C185.544 119.646 186.34 119.809 187.084 120.127C187.827 120.445 188.502 120.911 189.071 121.499C189.639 122.086 190.091 122.783 190.398 123.551C190.706 124.318 190.865 125.141 190.865 125.972V126.177L175.129 126.178L175.128 119.646Z" fill="#2F2E41"/>
<path d="M182.038 115.926C181.981 115.926 181.924 115.923 181.867 115.918L175.113 115.41C174.84 115.383 174.576 115.293 174.342 115.145C174.108 114.997 173.91 114.795 173.764 114.556C173.617 114.316 173.526 114.045 173.497 113.763C173.468 113.482 173.502 113.197 173.596 112.931L182.635 91.9559C182.7 91.7689 182.726 91.5701 182.713 91.3721C182.699 91.174 182.646 90.981 182.557 90.8052C182.468 90.6272 182.344 90.4708 182.192 90.3461C182.04 90.2214 181.865 90.1312 181.677 90.0816C177.427 88.9341 166.522 85.8786 157.082 82.3035C153.037 80.7717 150.49 78.5581 149.511 75.7242C148.22 71.9881 150.13 68.5809 150.212 68.438L150.276 68.3259L159.158 69.1599L168.788 70.0059L189.891 81.694C191.66 82.6817 193.003 84.3211 193.653 86.2857C194.304 88.2503 194.214 90.3959 193.402 92.2952L183.672 114.829C183.532 115.156 183.302 115.433 183.012 115.628C182.722 115.822 182.384 115.926 182.038 115.926Z" fill="#2F2E41"/>
<path d="M166.505 32.1554L156.155 28.4551C156.155 28.4551 149.658 33.6109 152.779 46.4012C154.408 53.0015 153.934 59.9686 151.425 66.2682C151.123 67.0476 150.775 67.8071 150.383 68.5423C150.383 68.5423 161.927 82.9326 172.675 72.2427L168.495 51.4796C168.495 51.4796 175.063 37.706 166.505 32.1554Z" fill="#F98614"/>
<path d="M164.703 26.7728C163.312 24.6215 162.214 21.6385 163.746 19.5916C165.258 17.5712 168.241 17.8688 170.557 16.9748C173.783 15.7296 175.654 11.8151 175.07 8.30951C174.487 4.80389 171.762 1.89784 168.517 0.708775C165.271 -0.480287 161.611 -0.0935766 158.432 1.2757C154.519 2.9613 151.163 6.22198 149.755 10.3524C148.348 14.4828 149.1 19.4422 152.02 22.6169C155.151 26.0205 160.063 26.9276 164.608 26.8726" fill="#2F2E41"/>
<path d="M155.609 8.422C153.855 9.89634 151.18 9.2415 149.298 7.94759C147.416 6.65367 145.888 4.81122 143.852 3.79674C140.262 2.00825 135.921 3.19718 132.427 5.17825C128.932 7.15932 125.835 9.89621 122.144 11.4508C118.453 13.0055 113.743 13.0823 110.948 10.1468C110.261 12.205 110.204 14.4322 110.787 16.5246C111.37 18.6169 112.564 20.4726 114.206 21.8383C115.848 23.204 117.857 24.0133 119.961 24.1557C122.064 24.2981 124.159 23.7668 125.96 22.6341C130.004 20.0897 132.238 14.7549 136.773 13.3506C139.284 12.5735 141.979 13.1994 144.516 13.8773C147.052 14.5552 149.698 15.2877 152.258 14.7106C154.818 14.1335 157.212 11.7572 156.887 9.07174L155.609 8.422Z" fill="#2F2E41"/>
<path d="M210.992 51.5136C210.735 50.9251 210.356 50.4021 209.882 49.9812C209.408 49.5604 208.85 49.2521 208.248 49.078C207.646 48.9039 207.014 48.8682 206.397 48.9735C205.781 49.0788 205.194 49.3225 204.678 49.6875L166.674 40.8777L166.202 50.4706L203.707 56.1139C204.358 56.9682 205.29 57.5461 206.326 57.7382C207.362 57.9303 208.43 57.7232 209.328 57.1561C210.226 56.5891 210.891 55.7015 211.198 54.6616C211.505 53.6216 211.432 52.5016 210.992 51.5136Z" fill="#FFB8B8"/>
<path d="M173.338 41.7589L171.018 51.4702C170.952 51.7465 170.829 52.0049 170.658 52.2277C170.486 52.4506 170.271 52.6326 170.025 52.7615C169.779 52.8904 169.51 52.9631 169.234 52.9747C168.959 52.9862 168.684 52.9363 168.429 52.8284L159.496 49.0468C158.128 48.6908 156.953 47.7889 156.229 46.5392C155.504 45.2894 155.289 43.7938 155.631 42.3805C155.973 40.9672 156.843 39.7517 158.052 39.0007C159.26 38.2497 160.708 38.0245 162.077 38.3746L171.658 39.313C171.932 39.34 172.197 39.4277 172.436 39.5702C172.674 39.7126 172.88 39.9065 173.04 40.1387C173.199 40.3708 173.308 40.6357 173.36 40.9153C173.411 41.1949 173.404 41.4826 173.338 41.7589Z" fill="#F98614"/>
<path d="M206.602 59.1355C208.141 59.1355 209.389 57.847 209.389 56.2575C209.389 54.6679 208.141 53.3794 206.602 53.3794C205.063 53.3794 203.816 54.6679 203.816 56.2575C203.816 57.847 205.063 59.1355 206.602 59.1355Z" fill="#F98614"/>
<path d="M330 149.589C330 149.698 329.958 149.802 329.883 149.879C329.809 149.956 329.707 150 329.602 150H0.39807C0.292495 150 0.191244 149.957 0.116592 149.88C0.0419391 149.803 0 149.698 0 149.589C0 149.48 0.0419391 149.375 0.116592 149.298C0.191244 149.221 0.292495 149.178 0.39807 149.178H329.602C329.707 149.178 329.809 149.222 329.883 149.299C329.958 149.376 330 149.48 330 149.589Z" fill="#3F3D56"/>
</g>
<defs>
<clipPath id="clip0_830_7601">
<rect width="330" height="150" fill="white"/>
</clipPath>
</defs>
</svg>
