<svg width="200" height="158" viewBox="0 0 200 158" fill="none" xmlns="http://www.w3.org/2000/svg">
<g clip-path="url(#clip0_830_7664)">
<path d="M48.0162 85.415C46.42 76.8721 48.9331 67.1532 55.9179 61.9822C55.522 71.4248 58.4789 80.703 64.2653 88.1754C66.5074 91.049 69.3003 94.0118 69.2135 97.6556C69.1596 99.9229 67.9334 102.035 66.3175 103.626C64.7016 105.218 62.711 106.365 60.7443 107.494L60.4381 107.971C54.6728 101.467 49.6124 93.9579 48.0162 85.415Z" fill="#F0F0F0"/>
<path d="M56.0452 62.1127C53.1106 68.6803 52.3201 76.0056 53.7858 83.0481C54.0744 84.5698 54.6011 86.0365 55.3465 87.3942C56.1153 88.6933 57.2179 89.7628 58.5398 90.4917C59.7588 91.196 61.0872 91.7753 62.1137 92.7636C62.6316 93.2774 63.0351 93.8948 63.2977 94.5754C63.5602 95.256 63.676 95.9844 63.6373 96.7128C63.5882 98.5305 62.8888 100.222 62.1475 101.852C61.3243 103.663 60.4406 105.53 60.494 107.565C60.5005 107.812 60.1175 107.808 60.111 107.561C60.0181 104.02 62.5782 101.176 63.1486 97.7787C63.4148 96.1932 63.2048 94.518 62.0901 93.289C61.1154 92.2143 59.7461 91.6158 58.5057 90.9133C57.2057 90.2212 56.0949 89.2213 55.2704 88.001C54.4584 86.6857 53.8761 85.2417 53.5485 83.731C52.7566 80.3416 52.5027 76.8488 52.7959 73.3806C53.1085 69.4204 54.0963 65.5429 55.7165 61.9159C55.8168 61.6914 56.1449 61.8897 56.0452 62.1127Z" fill="white"/>
<path d="M53.1804 80.8082C51.9654 80.8937 50.7596 80.5446 49.7783 79.8231C48.797 79.1017 48.1041 78.0549 47.8234 76.8697C47.7674 76.6297 48.1377 76.5314 48.1938 76.7718C48.4532 77.8759 49.0987 78.8509 50.0139 79.5209C50.929 80.1908 52.0535 80.5115 53.1844 80.4252C53.4302 80.4067 53.4248 80.7899 53.1804 80.8082Z" fill="white"/>
<path d="M57.8747 90.2159C59.524 88.3508 60.4098 85.9325 60.3553 83.4434C60.3497 83.1967 60.7327 83.201 60.7383 83.4474C60.7902 86.0378 59.8633 88.5525 58.1427 90.4896C57.9785 90.6741 57.7114 90.3994 57.8747 90.2159Z" fill="white"/>
<path d="M53.5572 69.6583C54.0342 69.7232 54.5198 69.6685 54.9705 69.4993C55.4211 69.3301 55.8227 69.0517 56.1391 68.6889C56.3009 68.5024 56.5678 68.7773 56.4071 68.9626C56.0557 69.3617 55.6118 69.6687 55.1143 69.8568C54.6168 70.0448 54.0808 70.1082 53.5532 70.0413C53.5029 70.0392 53.4553 70.018 53.4201 69.982C53.3849 69.9461 53.3647 69.8981 53.3636 69.8478C53.3644 69.7971 53.3852 69.7487 53.4214 69.7133C53.4577 69.6778 53.5065 69.658 53.5572 69.6583Z" fill="white"/>
<path d="M84.4818 69.0484C84.3842 69.1678 84.2865 69.2871 84.1897 69.4096C82.885 71.0207 81.7134 72.7352 80.6864 74.536C80.6048 74.674 80.5241 74.8151 80.4467 74.9551C78.0186 79.3202 76.4221 84.0981 75.7383 89.046C75.4679 91.0152 75.3478 93.002 75.379 94.9894C75.4221 97.734 75.6873 100.706 74.846 103.231C74.7612 103.495 74.6601 103.754 74.5432 104.006L61.0429 108.307C61.0073 108.301 60.9725 108.299 60.9368 108.293L60.4056 108.49C60.3969 108.387 60.39 108.281 60.3812 108.179C60.3759 108.119 60.3736 108.059 60.3682 108C60.3656 107.96 60.3632 107.92 60.3585 107.884C60.3576 107.871 60.3568 107.857 60.3569 107.847C60.3523 107.811 60.3518 107.777 60.3481 107.745C60.308 107.15 60.2708 106.555 60.24 105.957C60.239 105.954 60.239 105.954 60.2411 105.95C60.0093 101.399 60.1555 96.7896 60.9967 92.3484C61.022 92.2148 61.0462 92.0781 61.0778 91.9425C61.4681 89.9428 62.0211 87.9782 62.7315 86.0686C63.1238 85.0241 63.5687 84.0002 64.0646 83.0008C65.3508 80.4209 67.0348 78.0593 69.0548 76.0027C73.0823 71.9035 78.3761 69.1379 84.0484 69.0508C84.1935 69.0487 84.3357 69.0475 84.4818 69.0484Z" fill="#F0F0F0"/>
<path d="M84.506 69.2293C78.2087 72.7064 73.1672 78.0793 70.0974 84.5848C69.4117 85.9736 68.9492 87.4617 68.7269 88.9945C68.5586 90.4947 68.795 92.0125 69.4117 93.3903C69.9609 94.6866 70.6728 95.9489 70.8973 97.356C71.0016 98.078 70.952 98.8139 70.7519 99.5154C70.5518 100.217 70.2056 100.868 69.7362 101.427C68.6026 102.848 67.0258 103.778 65.4522 104.633C63.7051 105.583 61.8753 106.542 60.6925 108.199C60.5492 108.4 60.246 108.166 60.3891 107.965C62.4469 105.082 66.2031 104.353 68.7043 101.983C69.8714 100.878 70.7123 99.4137 70.5623 97.7614C70.431 96.3165 69.6981 95.0141 69.1306 93.7064C68.5093 92.3712 68.2244 90.904 68.3008 89.4333C68.4444 87.8941 68.8488 86.3906 69.4968 84.9871C70.9052 81.8042 72.8053 78.8625 75.1275 76.2698C77.7614 73.2961 80.8847 70.7948 84.362 68.8743C84.5773 68.7555 84.7199 69.1113 84.506 69.2293Z" fill="white"/>
<path d="M70.9625 82.432C69.941 81.7688 69.1884 80.764 68.8393 79.5972C68.4901 78.4303 68.5671 77.1774 69.0565 76.062C69.1563 75.8367 69.5112 75.9812 69.4112 76.2068C68.9536 77.2446 68.882 78.4117 69.2093 79.4976C69.5367 80.5835 70.2414 81.5167 71.1963 82.1286C71.4037 82.2618 71.1687 82.5645 70.9625 82.432Z" fill="white"/>
<path d="M69.0468 92.7697C71.4866 92.2736 73.6498 90.876 75.1049 88.8558C75.249 88.6555 75.5522 88.8895 75.4084 89.0896C73.8901 91.189 71.636 92.6388 69.096 93.1496C68.8538 93.1981 68.8059 92.818 69.0468 92.7697Z" fill="white"/>
<path d="M77.9766 73.7562C78.3184 74.0952 78.739 74.344 79.2008 74.4802C79.6625 74.6165 80.1508 74.6359 80.6218 74.5368C80.8632 74.4852 80.9109 74.8654 80.671 74.9166C80.1501 75.0237 79.6108 75.0016 79.1004 74.8522C78.5899 74.7028 78.1238 74.4307 77.7428 74.0596C77.704 74.0277 77.6788 73.9821 77.6723 73.9322C77.6658 73.8823 77.6786 73.8318 77.708 73.791C77.7392 73.751 77.7849 73.7249 77.8352 73.7184C77.8854 73.7119 77.9363 73.7255 77.9766 73.7562Z" fill="white"/>
<path d="M105.688 22.3328C105.733 22.5316 105.763 22.7337 105.776 22.9372L121.605 32.0687L125.452 29.8538L129.554 35.2233L123.124 39.8063C122.604 40.1765 121.979 40.3682 121.341 40.3527C120.703 40.3372 120.088 40.1152 119.587 39.7201L103.265 26.8434C102.528 27.1161 101.726 27.1581 100.965 26.9637C100.204 26.7693 99.5202 26.3479 99.0045 25.7554C98.4888 25.1629 98.1658 24.4275 98.0783 23.6469C97.9908 22.8663 98.143 22.0776 98.5147 21.3857C98.8864 20.6937 99.46 20.1314 100.159 19.7733C100.858 19.4153 101.65 19.2786 102.428 19.3814C103.207 19.4843 103.936 19.8217 104.518 20.3489C105.101 20.8761 105.508 21.5681 105.688 22.3328Z" fill="#FFB6B6"/>
<path d="M121.825 31.0605C121.875 30.8275 121.975 30.6082 122.117 30.4174C122.26 30.2266 122.442 30.0688 122.651 29.9548L129.959 25.9731C130.932 25.2386 132.157 24.92 133.365 25.0872C134.573 25.2544 135.665 25.8938 136.402 26.865C137.139 27.8363 137.461 29.0602 137.297 30.2683C137.132 31.4765 136.496 32.5703 135.527 33.3098L129.67 39.2599C129.502 39.4297 129.301 39.5615 129.078 39.6462C128.855 39.731 128.617 39.7668 128.379 39.7512C128.141 39.7355 127.91 39.6688 127.7 39.5556C127.491 39.4424 127.308 39.2853 127.164 39.0951L122.121 32.4091C121.978 32.2189 121.877 31.9999 121.826 31.7672C121.774 31.5344 121.774 31.2934 121.825 31.0605Z" fill="#3F3D56"/>
<path d="M134.88 7.91228C135.932 4.56135 138.323 1.48799 141.629 0.355197C144.936 -0.777598 149.779 0.948017 152.265 3.42568C156.812 7.95782 157.922 23.5274 154.798 28.4475C154.176 28.4146 152.032 28.3903 151.403 28.3667L150.513 25.4012V28.3375C145.604 28.1858 140.493 28.2808 135.379 28.379C134.921 24.8955 133.829 11.2632 134.88 7.91228Z" fill="#2F2E41"/>
<path d="M133.473 148.567H128.996L126.866 131.295L133.474 131.296L133.473 148.567Z" fill="#FFB6B6"/>
<path d="M172.671 145.782L168.338 146.912L161.92 130.736L168.315 129.07L172.671 145.782Z" fill="#FFB6B6"/>
<path d="M147.995 42.4885L149.01 45.1264L148.807 47.7643L128.95 54.6419L129.936 43.0972L132.168 40.459L147.995 42.4885Z" fill="#FFB6B6"/>
<path d="M141.717 18.7496C145.634 18.7496 148.809 15.5744 148.809 11.6576C148.809 7.74077 145.634 4.56555 141.717 4.56555C137.8 4.56555 134.625 7.74077 134.625 11.6576C134.625 15.5744 137.8 18.7496 141.717 18.7496Z" fill="#FFB7B7"/>
<path d="M136.844 2.42243C138.207 1.59168 139.767 1.1423 141.363 1.12126C142.959 1.10022 144.531 1.5083 145.915 2.30283C147.299 3.09737 148.445 4.24917 149.231 5.63781C150.018 7.02645 150.417 8.60092 150.387 10.1966C146.521 11.1847 142.401 11.598 138.036 10.4346L137.038 7.99216L136.449 10.4364C135.114 11.3759 133.825 11.3742 132.582 10.4313C132.529 8.84012 132.895 7.26299 133.643 5.85755C134.391 4.45212 135.495 3.26761 136.844 2.42243Z" fill="#2F2E41"/>
<path d="M135.476 157.069H132.299L131.732 154.069L130.279 157.069H121.852C121.448 157.069 121.055 156.94 120.73 156.701C120.404 156.461 120.164 156.124 120.044 155.739C119.923 155.353 119.93 154.939 120.061 154.557C120.193 154.175 120.443 153.845 120.776 153.616L127.506 148.968V145.936L134.584 146.358L135.476 157.069Z" fill="#2F2E41"/>
<path d="M177.147 153.402L174.072 154.204L172.767 151.444L172.118 154.713L163.963 156.839C163.572 156.94 163.159 156.915 162.784 156.765C162.409 156.616 162.091 156.35 161.877 156.007C161.664 155.664 161.565 155.262 161.597 154.859C161.628 154.457 161.787 154.074 162.051 153.769L167.39 147.574L166.625 144.639L173.581 143.262L177.147 153.402Z" fill="#2F2E41"/>
<path d="M172.122 134.921L158.997 107.945L154.876 75.1114C157.717 69.8355 152.441 59.1001 152.441 59.1001V54.5928L132.004 58.4484C127.824 69.8495 125.797 81.9277 126.026 94.0689L126.849 137.714H126.591C126.162 137.714 125.751 137.884 125.448 138.187C125.145 138.49 124.975 138.901 124.975 139.33C124.975 139.759 125.145 140.17 125.448 140.473C125.751 140.776 126.162 140.946 126.591 140.946H134.673C135.101 140.946 135.513 140.776 135.816 140.473C136.119 140.17 136.289 139.759 136.289 139.33C136.289 138.901 136.119 138.49 135.816 138.187C135.513 137.884 135.101 137.714 134.673 137.714H134.464L140.266 82.1897L147.012 109.589L163.315 134.817C162.899 134.85 162.512 135.042 162.235 135.354C161.958 135.666 161.812 136.073 161.829 136.489C161.846 136.906 162.023 137.3 162.324 137.589C162.626 137.877 163.027 138.038 163.444 138.037H171.526C171.902 138.037 172.266 137.907 172.556 137.667C172.845 137.428 173.043 137.095 173.113 136.726C173.184 136.356 173.124 135.974 172.943 135.645C172.762 135.315 172.471 135.059 172.122 134.921Z" fill="#2F2E41"/>
<path d="M154.289 61.8634C154.222 61.5996 154.073 61.3639 153.864 61.19C153.654 61.016 153.395 60.9129 153.124 60.8952C152.854 57.8153 151.074 38.063 151.007 37.4835L151.004 37.459L150.488 26.4491C150.47 26.0493 150.304 25.6703 150.024 25.3847C149.744 25.099 149.368 24.9267 148.968 24.9005L146.246 24.7226C146.209 24.7213 146.173 24.7056 146.147 24.6788C146.121 24.6519 146.107 24.616 146.107 24.5786C146.107 24.278 146.048 23.9803 145.933 23.7026C145.818 23.4249 145.649 23.1725 145.436 22.9599C145.224 22.7474 144.971 22.5787 144.694 22.4637C144.416 22.3486 144.118 22.2894 143.818 22.2894H135.758C135.236 22.2896 134.732 22.4804 134.341 22.8258C133.949 23.1713 133.697 23.6477 133.632 24.1656C133.629 24.2013 133.612 24.2343 133.585 24.258C133.558 24.2818 133.523 24.2945 133.488 24.2937L133.487 24.2937C132.571 24.2748 131.679 24.5849 130.972 25.1676C130.265 25.7503 129.791 26.567 129.635 27.4696C128.533 33.8804 126.325 48.4305 127.416 56.5195C127.797 59.3354 127.624 63.5705 127.48 65.9266C127.466 66.1543 127.497 66.3825 127.571 66.5983C127.645 66.8141 127.761 67.0131 127.912 67.184C127.59 67.2767 127.318 67.4905 127.151 67.7804C126.984 68.0704 126.936 68.4137 127.018 68.7382C127.101 69.0707 127.314 69.3563 127.608 69.5322C127.903 69.7081 128.255 69.7598 128.588 69.6759L153.351 63.4333C153.684 63.3495 153.969 63.137 154.145 62.8426C154.321 62.5481 154.373 62.1959 154.289 61.8634Z" fill="#3F3D56"/>
<path d="M113.361 108.15C113.356 107.427 113.096 106.729 112.626 106.18C112.156 105.631 111.506 105.266 110.792 105.15L66.8875 97.9403C66.4665 97.8706 66.0356 97.8897 65.6224 97.9965L55.333 100.657L49.4293 102.185L38.5342 105.002C37.8765 105.173 37.2941 105.557 36.8783 106.094C36.4624 106.632 36.2368 107.292 36.2366 107.972V153.978C36.2398 154.679 36.4822 155.358 36.9236 155.903C37.365 156.448 37.9791 156.827 38.6645 156.975L83.3848 156.469C83.5947 156.514 83.809 156.536 84.0237 156.536C84.3366 156.536 84.6478 156.489 84.9463 156.395L111.516 157.056C112.143 156.86 112.69 156.468 113.076 155.937C113.463 155.405 113.667 154.764 113.66 154.107L113.361 108.15Z" fill="white"/>
<path d="M113.361 108.15C113.356 107.427 113.096 106.729 112.626 106.18C112.156 105.631 111.506 105.266 110.792 105.15L66.8875 97.9403C66.4665 97.8706 66.0356 97.8897 65.6224 97.9965L55.333 100.657L49.4293 102.185L38.5342 105.002C37.8765 105.173 37.2941 105.557 36.8783 106.094C36.4624 106.632 36.2368 107.292 36.2366 107.972V153.978C36.2398 154.679 36.4822 155.358 36.9236 155.903C37.365 156.448 37.9791 156.827 38.6645 156.975L83.3848 156.469C83.5947 156.514 83.809 156.536 84.0237 156.536C84.3366 156.536 84.6478 156.489 84.9463 156.395L111.516 157.056C112.143 156.86 112.69 156.468 113.076 155.937C113.463 155.405 113.667 154.764 113.66 154.107L113.361 108.15ZM111.286 156.325L84.7163 156.957C84.3373 157.075 83.9344 157.095 83.5458 157.013L38.823 156.227C38.3091 156.115 37.8488 155.831 37.518 155.422C37.1872 155.013 37.0056 154.504 37.0033 153.978V107.972C37.0036 107.501 37.1484 107.041 37.418 106.655C37.6876 106.269 38.0692 105.974 38.5112 105.812C38.5814 105.786 38.6531 105.763 38.7259 105.745L50.2522 102.765L57.0684 101.002L65.8141 98.7402C66.0016 98.6901 66.195 98.6652 66.3891 98.6661C66.5141 98.666 66.6389 98.6763 66.7623 98.6967L110.667 105.906C111.021 105.964 111.355 106.104 111.646 106.314C111.936 106.523 112.173 106.798 112.339 107.115C112.505 107.437 112.592 107.793 112.594 108.155L112.893 154.112C112.899 154.605 112.745 155.086 112.456 155.485C112.166 155.883 111.756 156.178 111.286 156.325Z" fill="#CCCCCC"/>
<path d="M112.339 107.115C112.309 107.135 112.276 107.149 112.242 107.159L99.3274 110.65L95.3073 111.736L83.8729 114.826C83.8403 114.834 83.8069 114.838 83.7733 114.839C83.7502 114.838 83.7271 114.836 83.7042 114.834L37.5988 106.428L37.4455 106.4C37.3456 106.381 37.2572 106.323 37.1996 106.24C37.142 106.156 37.12 106.053 37.1382 105.953C37.1564 105.853 37.2135 105.764 37.297 105.706C37.3804 105.648 37.4834 105.625 37.5835 105.643L38.5112 105.812L83.7579 114.062L93.6128 111.399L99.1256 109.909L111.84 106.471L112.042 106.417C112.13 106.394 112.222 106.403 112.304 106.441C112.386 106.479 112.451 106.545 112.489 106.627C112.499 106.647 112.507 106.667 112.512 106.688C112.534 106.769 112.528 106.854 112.497 106.931C112.465 107.008 112.41 107.072 112.339 107.115Z" fill="#CCCCCC"/>
<path d="M84.1566 156.625C83.9465 156.625 83.7753 156.456 83.7733 157.538L83.3899 115.752C83.3879 114.247 83.5581 114.074 83.7698 114.072H83.7733C83.9834 114.072 84.1546 114.241 84.1566 115.745L84.54 157.531C84.542 156.45 84.3718 156.623 84.1601 156.625H84.1566Z" fill="#CCCCCC"/>
<path d="M99.4362 157.11L95.3073 157.154L93.6128 111.399L50.3775 102.796C50.3351 102.789 50.2933 102.778 50.2523 102.765C49.9202 102.671 49.63 102.466 49.4293 102.185L55.3331 100.657L57.0684 101.002L98.0931 109.162C98.3088 109.205 98.5127 109.294 98.691 109.423C98.8692 109.551 99.0174 109.717 99.1256 109.909C99.2533 110.131 99.4336 156.844 99.4362 157.11Z" fill="#CCCCCC"/>
<path d="M132.508 24.4036C132.504 23.8587 132.308 23.3327 131.954 22.9187C131.599 22.5048 131.11 22.2297 130.572 22.1423L97.4829 16.7087C97.1656 16.6562 96.8408 16.6706 96.5294 16.7511L88.7748 18.7562L84.3254 19.908L76.1143 22.0306C75.6186 22.1593 75.1797 22.4489 74.8663 22.854C74.5529 23.259 74.3828 23.7566 74.3827 24.2688V51.3888C74.3852 51.9174 74.5678 52.4293 74.9005 52.8401C75.2332 53.2508 75.696 53.5359 76.2125 53.6481L109.916 60.8192C110.074 60.8532 110.236 60.8699 110.398 60.8692C110.633 60.8697 110.868 60.8339 111.093 60.7633L131.117 54.4398C131.59 54.2923 132.002 53.9964 132.293 53.596C132.584 53.1956 132.739 52.712 132.733 52.217L132.508 24.4036Z" fill="white"/>
<path d="M97.1082 18.7002C97.0841 18.7002 97.06 18.7033 97.0366 18.7094L76.6214 23.989C76.5595 24.005 76.5047 24.0412 76.4655 24.0917C76.4264 24.1423 76.4052 24.2044 76.4052 24.2683V51.3879C76.4054 51.4539 76.4282 51.5179 76.4697 51.5693C76.5113 51.6206 76.5691 51.6562 76.6336 51.6702L110.337 58.8412C110.386 58.8514 110.437 58.849 110.484 58.834L130.509 52.5107C130.568 52.4923 130.619 52.4553 130.655 52.4053C130.692 52.3553 130.711 52.2948 130.71 52.233L130.486 24.4197C130.485 24.3517 130.461 24.286 130.416 24.2343C130.372 24.1827 130.311 24.1483 130.244 24.1374L97.1549 18.704C97.1394 18.7015 97.1238 18.7002 97.1082 18.7002Z" fill="#F98614"/>
<path d="M132.508 24.4036C132.504 23.8587 132.308 23.3327 131.954 22.9187C131.599 22.5048 131.11 22.2297 130.572 22.1423L97.4829 16.7087C97.1656 16.6562 96.8408 16.6706 96.5294 16.7511L88.7748 18.7562L84.3254 19.908L76.1143 22.0306C75.6186 22.1593 75.1797 22.4489 74.8663 22.854C74.5529 23.259 74.3828 23.7566 74.3827 24.2688V51.3888C74.3852 51.9174 74.5678 52.4293 74.9005 52.8401C75.2332 53.2508 75.696 53.5359 76.2125 53.6481L109.916 60.8192C110.074 60.8532 110.236 60.8699 110.398 60.8692C110.633 60.8697 110.868 60.8339 111.093 60.7633L131.117 54.4398C131.59 54.2923 132.002 53.9964 132.293 53.596C132.584 53.1956 132.739 52.712 132.733 52.217L132.508 24.4036ZM130.944 53.8889L110.92 60.2124C110.634 60.3014 110.33 60.316 110.037 60.2548L76.3319 53.0838C75.9446 52.9993 75.5977 52.7854 75.3484 52.4773C75.0991 52.1691 74.9623 51.7852 74.9605 51.3888V24.2688C74.9608 23.9138 75.0699 23.5675 75.2731 23.2765C75.4763 22.9854 75.7638 22.7637 76.097 22.6412C76.1499 22.6213 76.2039 22.6046 76.2587 22.5911L84.9456 20.3453L90.0826 19.0162L96.6739 17.3116C96.8152 17.2739 96.961 17.2551 97.1073 17.2557C97.2015 17.2557 97.2955 17.2634 97.3885 17.2788L130.478 22.7125C130.744 22.7562 130.996 22.8612 131.215 23.0194C131.434 23.1775 131.612 23.3843 131.737 23.6235C131.862 23.8661 131.928 24.1346 131.93 24.4075L132.155 52.2209C132.159 52.5922 132.044 52.955 131.826 53.2554C131.607 53.5559 131.298 53.778 130.944 53.8889Z" fill="#3F3D56"/>
<path d="M131.737 23.6235C131.715 23.6382 131.69 23.6493 131.664 23.6562L121.931 26.2873L118.902 27.1059L110.284 29.4346C110.259 29.4406 110.234 29.4439 110.209 29.4442C110.191 29.4439 110.174 29.4426 110.157 29.4404L75.4093 23.1053L75.2938 23.0841C75.2184 23.0701 75.1518 23.0267 75.1083 22.9636C75.0649 22.9004 75.0482 22.8227 75.062 22.7473C75.0757 22.6719 75.1188 22.605 75.1817 22.5613C75.2446 22.5176 75.3223 22.5006 75.3978 22.514L76.097 22.6411L110.197 28.8587L117.624 26.8517L121.779 25.7287L131.362 23.1381L131.514 23.0976C131.58 23.0803 131.649 23.0866 131.711 23.1155C131.773 23.1443 131.822 23.1939 131.851 23.2556C131.858 23.2703 131.864 23.2858 131.868 23.3018C131.884 23.3624 131.88 23.4264 131.856 23.4844C131.833 23.5424 131.791 23.5912 131.737 23.6235Z" fill="#3F3D56"/>
<path d="M110.498 60.9366C110.422 60.9366 110.349 60.9066 110.294 60.853C110.24 60.7993 110.21 60.7265 110.209 60.6504L109.92 29.158C109.919 29.0814 109.949 29.0076 110.003 28.953C110.056 28.8983 110.13 28.8672 110.206 28.8665H110.209C110.285 28.8665 110.358 28.8965 110.412 28.9501C110.466 29.0038 110.497 29.0766 110.498 29.1528L110.787 60.6451C110.787 60.7217 110.758 60.7955 110.704 60.8501C110.65 60.9048 110.577 60.9359 110.5 60.9366H110.498Z" fill="#3F3D56"/>
<path d="M121.931 57.1056L118.901 57.9242L117.624 26.8518L85.04 20.3684C85.008 20.3627 84.9765 20.355 84.9456 20.3453C84.6953 20.274 84.4766 20.1198 84.3253 19.908L88.7747 18.7562L90.0826 19.0162L121.001 25.1664C121.163 25.1985 121.317 25.2654 121.452 25.3625C121.586 25.4596 121.698 25.5845 121.779 25.7288C121.875 25.8964 121.929 56.9053 121.931 57.1056Z" fill="#3F3D56"/>
<path d="M120.574 39.3892C120.729 39.5218 120.873 39.6663 121.005 39.8215L139.156 37.7018L140.921 33.6284L147.417 35.489L144.992 43.0037C144.797 43.6108 144.409 44.138 143.888 44.5061C143.367 44.8742 142.741 45.0634 142.103 45.0453L121.322 44.4545C120.893 45.1129 120.275 45.6254 119.548 45.9236C118.821 46.2218 118.021 46.2918 117.254 46.1242C116.487 45.9565 115.788 45.5592 115.252 44.9851C114.716 44.411 114.368 43.6873 114.253 42.9103C114.138 42.1332 114.263 41.3397 114.61 40.6352C114.957 39.9307 115.511 39.3486 116.197 38.9664C116.883 38.5841 117.67 38.4198 118.451 38.4954C119.233 38.5709 119.974 38.8827 120.574 39.3892Z" fill="#FFB6B6"/>
<path d="M138.73 36.7617C138.632 36.5449 138.581 36.3093 138.582 36.071C138.582 35.8327 138.634 35.5974 138.734 35.3811L142.221 27.8248C142.564 26.6548 143.357 25.6683 144.425 25.0818C145.494 24.4952 146.752 24.3564 147.923 24.6959C149.094 25.0353 150.083 25.8253 150.672 26.8925C151.261 27.9597 151.404 29.2171 151.067 30.389L149.919 38.6588C149.886 38.8948 149.803 39.1209 149.675 39.3219C149.546 39.5228 149.377 39.6938 149.176 39.8231C148.976 39.9525 148.751 40.0372 148.515 40.0715C148.279 40.1057 148.039 40.0888 147.81 40.0218L139.774 37.6666C139.545 37.5997 139.333 37.4843 139.153 37.3281C138.973 37.1719 138.829 36.9787 138.73 36.7617Z" fill="#3F3D56"/>
<path d="M199.615 157.446H0.384895C0.283002 157.446 0.185381 157.405 0.113437 157.333C0.041492 157.261 0.00109863 157.163 0.00109863 157.061C0.00109863 156.96 0.041492 156.862 0.113437 156.79C0.185381 156.717 0.283002 156.677 0.384895 156.677H199.615C199.717 156.677 199.815 156.717 199.887 156.789C199.959 156.861 200 156.959 200 157.061C200 157.164 199.959 157.261 199.887 157.334C199.815 157.406 199.717 157.446 199.615 157.446Z" fill="#CACACA"/>
<path d="M38.829 116.547C45.2226 116.547 50.4057 111.364 50.4057 104.97C50.4057 98.5766 45.2226 93.3936 38.829 93.3936C32.4354 93.3936 27.2523 98.5766 27.2523 104.97C27.2523 111.364 32.4354 116.547 38.829 116.547Z" fill="#F98614"/>
<path d="M37.2497 110.995C37.0498 110.995 36.8527 110.949 36.6739 110.859C36.4951 110.77 36.3396 110.64 36.2196 110.48L33.0614 106.269C32.8564 105.996 32.7685 105.652 32.8168 105.314C32.8651 104.976 33.0457 104.671 33.319 104.466C33.5922 104.261 33.9356 104.173 34.2737 104.222C34.6118 104.27 34.9168 104.451 35.1218 104.724L37.188 107.479L42.4949 99.5184C42.5885 99.3771 42.709 99.2557 42.8496 99.1611C42.9902 99.0665 43.148 99.0005 43.3141 98.967C43.4802 98.9336 43.6513 98.9332 43.8176 98.9659C43.9838 98.9987 44.142 99.0639 44.283 99.1579C44.424 99.2519 44.545 99.3728 44.6392 99.5137C44.7334 99.6546 44.7988 99.8126 44.8318 99.9788C44.8648 100.145 44.8646 100.316 44.8314 100.482C44.7981 100.648 44.7323 100.806 44.6379 100.947L38.3213 110.422C38.2071 110.593 38.0534 110.735 37.8732 110.835C37.693 110.934 37.4915 110.989 37.2856 110.995C37.2736 110.995 37.2617 110.995 37.2497 110.995Z" fill="white"/>
<path d="M88.122 43.4801C88.086 43.48 88.0501 43.476 88.015 43.4681L77.9936 41.2052C77.8683 41.1767 77.7594 41.0997 77.6908 40.991C77.6222 40.8824 77.5996 40.7509 77.6279 40.6256C77.6561 40.5002 77.733 40.3912 77.8416 40.3225C77.9502 40.2538 78.0816 40.231 78.207 40.2591L88.2284 42.522C88.3448 42.5482 88.4473 42.6165 88.5165 42.7136C88.5857 42.8108 88.6167 42.93 88.6036 43.0486C88.5904 43.1671 88.534 43.2767 88.4452 43.3563C88.3563 43.4359 88.2413 43.48 88.122 43.4801Z" fill="white"/>
<path d="M49.5538 134.557C49.5185 134.565 49.4825 134.568 49.4465 134.567L39.1743 134.394C39.0458 134.392 38.9236 134.339 38.8344 134.246C38.7452 134.154 38.6963 134.03 38.6984 133.901C38.7006 133.773 38.7536 133.651 38.8458 133.561C38.938 133.472 39.0619 133.423 39.1904 133.425L49.4626 133.598C49.5819 133.6 49.6962 133.646 49.7838 133.727C49.8713 133.808 49.926 133.918 49.9372 134.037C49.9485 134.155 49.9156 134.274 49.8449 134.37C49.7742 134.466 49.6705 134.533 49.5538 134.557Z" fill="#E6E6E6"/>
<path d="M53.1097 140.053C53.0744 140.06 53.0385 140.064 53.0024 140.063L42.7302 139.89C42.6018 139.888 42.4795 139.834 42.3903 139.742C42.3011 139.65 42.2522 139.525 42.2543 139.397C42.2565 139.269 42.3095 139.146 42.4017 139.057C42.4939 138.967 42.6178 138.918 42.7463 138.92L53.0185 139.093C53.1378 139.095 53.2521 139.141 53.3397 139.222C53.4272 139.303 53.4819 139.414 53.4931 139.532C53.5044 139.651 53.4715 139.77 53.4008 139.866C53.3301 139.962 53.2264 140.028 53.1097 140.053Z" fill="#E6E6E6"/>
</g>
<defs>
<clipPath id="clip0_830_7664">
<rect width="200" height="157.538" fill="white"/>
</clipPath>
</defs>
</svg>
