<svg width="260" height="230" viewBox="0 0 260 230" fill="none" xmlns="http://www.w3.org/2000/svg">
<g clip-path="url(#clip0_830_7730)">
<path d="M166.975 207.199L166.337 198.314C162.158 196.222 157.533 195.184 152.862 195.288C159.433 200.374 158.907 210.54 163.457 217.497C164.893 219.656 166.796 221.463 169.025 222.786C171.253 224.108 173.75 224.912 176.331 225.136L181.8 228.287C182.425 224.146 182.147 219.919 180.984 215.897C179.821 211.875 177.801 208.153 175.064 204.988C173.51 203.227 171.742 201.67 169.8 200.352C168.604 203.788 166.975 207.199 166.975 207.199Z" fill="#F2F2F2"/>
<path d="M134.4 229.47H259.599C259.705 229.47 259.807 229.427 259.883 229.352C259.958 229.277 260 229.175 260 229.068C260 228.962 259.958 228.859 259.883 228.784C259.807 228.709 259.705 228.667 259.599 228.667H134.4C134.294 228.667 134.192 228.709 134.116 228.784C134.041 228.859 133.999 228.962 133.999 229.068C133.999 229.175 134.041 229.277 134.116 229.352C134.192 229.427 134.294 229.47 134.4 229.47Z" fill="#CCCCCC"/>
<path d="M54.6873 133.591V133.763H54.807C54.7636 133.708 54.7237 133.65 54.6873 133.591ZM55.6081 60.6987C47.251 71.5819 42.7273 84.9294 42.7432 98.658C42.7451 100.749 42.8474 102.81 43.05 104.841C43.0813 105.19 43.1176 105.539 43.1646 105.883C44.3258 115.986 47.9506 125.648 53.7198 134.018C53.9433 134.346 54.1722 134.669 54.4013 134.992C56.8848 138.479 59.7201 141.7 62.8623 144.605C88.1583 167.995 127.6 166.422 150.958 141.092C151.317 140.712 151.661 140.326 151.999 139.941C161.559 129.098 167.059 115.266 167.558 100.81C168.056 86.3547 163.521 72.1753 154.73 60.6987C154.464 60.3497 154.194 60.0007 153.913 59.6569C153.298 58.8807 152.659 58.1202 151.999 57.3752C151.661 56.9898 151.317 56.6043 150.958 56.224C145.126 49.8902 138.046 44.8359 130.165 41.3804C122.284 37.9249 113.773 36.1432 105.169 36.1478C104.571 36.1478 103.978 36.1583 103.385 36.1739C102.989 36.1843 102.594 36.1999 102.199 36.2208C93.343 36.6417 84.6791 38.95 76.7855 42.9915C68.8919 47.033 61.9504 52.7146 56.4247 59.6569C56.1438 60.0007 55.8736 60.3497 55.6081 60.6987ZM54.807 133.763C54.7636 133.708 54.7237 133.65 54.6873 133.591V133.763H54.807Z" fill="white"/>
<path d="M54.2505 132.95L54.4273 132.59L67.6719 105.883V105.878L68.1871 104.841V104.836L90.0671 60.6986V60.6934L90.5822 59.6568L90.5873 59.6516L101.668 37.2886L102.199 36.2207C102.594 36.1999 102.989 36.1843 103.385 36.1738L102.859 37.2365L91.7476 59.6516V59.6568L91.2325 60.6934V60.6986L68.7799 105.987L68.7749 105.992L55.5302 132.721L55.01 133.763L54.9266 133.934L54.4013 134.992C54.1722 134.669 53.9434 134.346 53.7198 134.018L54.2505 132.95Z" fill="#3F3D56"/>
<path d="M68.5563 104.841V105.883H43.1646C43.1176 105.539 43.0813 105.19 43.05 104.841H68.5563Z" fill="#3F3D56"/>
<path d="M108.016 112.968V111.926H133.408C133.455 112.27 133.492 112.619 133.523 112.968H108.016Z" fill="#3F3D56"/>
<path d="M129.255 109.338H130.295V134.764C129.952 134.811 129.603 134.848 129.255 134.879V109.338Z" fill="#3F3D56"/>
<path d="M154.73 60.6987C154.464 60.3497 154.194 60.0007 153.913 59.6568H151.999V57.3752C151.661 56.9898 151.317 56.6043 150.958 56.224V59.6568H56.4248C56.1439 60.0007 55.8736 60.3497 55.6082 60.6987H150.958V141.092C151.317 140.712 151.661 140.326 151.999 139.941V60.6987H154.73Z" fill="#3F3D56"/>
<path d="M151.478 132.72H54.6862V133.762H151.478V132.72Z" fill="#3F3D56"/>
<path d="M54.6873 133.591V133.763H54.807C54.7636 133.708 54.7237 133.65 54.6873 133.591ZM55.6081 60.6987C47.251 71.5819 42.7273 84.9294 42.7432 98.658C42.7451 100.749 42.8474 102.81 43.05 104.841C43.0813 105.19 43.1176 105.539 43.1646 105.883C44.3258 115.986 47.9506 125.648 53.7198 134.018C53.9433 134.346 54.1722 134.669 54.4013 134.992C56.8848 138.479 59.7201 141.7 62.8623 144.605C88.1583 167.995 127.6 166.422 150.958 141.092C151.317 140.712 151.661 140.326 151.999 139.941C161.559 129.098 167.059 115.266 167.558 100.81C168.056 86.3547 163.521 72.1753 154.73 60.6987C154.464 60.3497 154.194 60.0007 153.913 59.6569C153.298 58.8807 152.659 58.1202 151.999 57.3752C151.661 56.9898 151.317 56.6043 150.958 56.224C145.126 49.8902 138.046 44.8359 130.165 41.3804C122.284 37.9249 113.773 36.1432 105.169 36.1478C104.571 36.1478 103.978 36.1583 103.385 36.1739C102.989 36.1843 102.594 36.1999 102.199 36.2208C93.343 36.6417 84.6791 38.95 76.7855 42.9915C68.8919 47.033 61.9504 52.7146 56.4247 59.6569C56.1438 60.0007 55.8736 60.3497 55.6081 60.6987ZM44.2101 105.883C44.1634 105.539 44.1271 105.19 44.0905 104.841C42.5048 89.0195 47.1028 73.1979 56.9191 60.6987C57.1947 60.3497 57.4705 60.0006 57.7565 59.6568C63.133 53.0901 69.8114 47.7117 77.3697 43.8615C84.928 40.0114 93.2017 37.7732 101.668 37.2886C102.063 37.2678 102.459 37.2469 102.859 37.2365C103.624 37.2053 104.394 37.1897 105.169 37.1897C113.82 37.1845 122.374 39.0157 130.266 42.5624C138.159 46.1091 145.211 51.2909 150.958 57.7659C151.317 58.1618 151.666 58.5577 151.999 58.964C152.202 59.1932 152.394 59.4224 152.581 59.6568C152.867 60.0007 153.143 60.3497 153.419 60.6987C162.166 71.8189 166.803 85.626 166.544 99.779C166.285 113.932 161.146 127.56 151.999 138.352C151.666 138.758 151.317 139.154 150.958 139.55C147.791 143.113 144.219 146.295 140.316 149.031C112.573 168.473 74.3432 161.715 54.9266 133.935C54.8849 133.877 54.8433 133.82 54.807 133.763C54.7636 133.708 54.7237 133.65 54.6873 133.591C54.5365 133.377 54.3908 133.164 54.2504 132.95C48.7859 124.864 45.3425 115.581 44.2101 105.883ZM54.807 133.763C54.7636 133.708 54.7237 133.65 54.6873 133.591V133.763H54.807Z" fill="#CCCCCC"/>
<path d="M177.065 165.798H114.784C114.023 165.797 113.293 165.494 112.754 164.955C112.216 164.416 111.913 163.685 111.912 162.922V132.534C111.913 131.772 112.216 131.041 112.754 130.502C113.293 129.962 114.023 129.659 114.784 129.658H177.065C177.827 129.659 178.557 129.962 179.095 130.502C179.634 131.041 179.937 131.772 179.938 132.534V162.922C179.937 163.685 179.634 164.416 179.095 164.955C178.557 165.494 177.827 165.797 177.065 165.798Z" fill="#CACACA"/>
<path d="M149.632 163.353C135.992 163.353 121.769 163.223 116.462 163.138C115.764 163.124 115.099 162.836 114.61 162.338C114.12 161.839 113.844 161.169 113.842 160.469V132.537C113.842 132.286 113.941 132.046 114.118 131.869C114.295 131.692 114.534 131.591 114.784 131.591H177.063C177.313 131.591 177.553 131.69 177.73 131.867C177.907 132.044 178.007 132.284 178.008 132.534V151.486C177.996 154.58 176.774 157.545 174.604 159.747C172.434 161.949 169.488 163.211 166.399 163.263C161.453 163.328 155.597 163.353 149.632 163.353Z" fill="#E4E4E4"/>
<path d="M170.635 149.053H119.96C119.632 149.052 119.311 148.95 119.043 148.761C118.774 148.571 118.571 148.303 118.46 147.993L112.724 131.88C112.639 131.64 112.612 131.382 112.647 131.129C112.681 130.876 112.776 130.635 112.922 130.427C113.069 130.218 113.264 130.047 113.49 129.93C113.716 129.812 113.968 129.75 114.223 129.75L177.567 129.661H177.57C177.833 129.661 178.093 129.727 178.325 129.852C178.557 129.977 178.754 130.158 178.899 130.378C179.044 130.599 179.133 130.852 179.156 131.115C179.179 131.377 179.137 131.642 179.034 131.885L172.099 148.086C171.977 148.373 171.773 148.618 171.512 148.79C171.252 148.962 170.947 149.053 170.635 149.053Z" fill="#CACACA"/>
<path d="M134.648 160.22H117.174C116.744 160.22 116.331 160.048 116.027 159.743C115.723 159.438 115.553 159.025 115.553 158.595C115.553 158.164 115.723 157.751 116.027 157.446C116.331 157.141 116.744 156.97 117.174 156.969H134.648C135.078 156.97 135.491 157.141 135.795 157.446C136.098 157.751 136.269 158.164 136.269 158.595C136.269 159.025 136.098 159.438 135.795 159.743C135.491 160.048 135.078 160.22 134.648 160.22Z" fill="#CACACA"/>
<path d="M145.83 153.026C148.022 153.026 149.798 151.247 149.798 149.053C149.798 146.858 148.022 145.079 145.83 145.079C143.639 145.079 141.862 146.858 141.862 149.053C141.862 151.247 143.639 153.026 145.83 153.026Z" fill="#3F3D56"/>
<path d="M20.0593 8.21629C29.8095 1.34057 41.888 -1.37505 53.6377 0.666836C65.3875 2.70872 75.8459 9.34084 82.7124 19.1042C97.011 39.4354 111.359 92.7488 101.231 123.634C71.0214 91.6813 24.6111 88.361 9.18602 70.954C-7.29625 52.354 -0.24447 22.5342 20.0593 8.21629Z" fill="#F98614"/>
<path d="M46.5608 54.255C54.6598 54.255 61.2253 47.6806 61.2253 39.5707C61.2253 31.4608 54.6598 24.8865 46.5608 24.8865C38.4619 24.8865 31.8964 31.4608 31.8964 39.5707C31.8964 47.6806 38.4619 54.255 46.5608 54.255Z" fill="white"/>
<path d="M113.627 139.626C118.932 139.626 123.232 135.32 123.232 130.008C123.232 124.696 118.932 120.39 113.627 120.39C108.322 120.39 104.022 124.696 104.022 130.008C104.022 135.32 108.322 139.626 113.627 139.626Z" fill="#F98614"/>
<path opacity="0.2" d="M30.8716 36.1824C29.9006 37.8476 29.2666 39.6881 29.0059 41.5987C28.7453 43.5092 28.863 45.4525 29.3523 47.3176C29.8416 49.1826 30.693 50.9329 31.8578 52.4684C33.0227 54.004 34.4781 55.2948 36.1411 56.2671C37.8041 57.2394 39.6421 57.8742 41.5501 58.1352C43.4581 58.3962 45.3988 58.2784 47.2613 57.7884C49.1238 57.2984 50.8717 56.4459 52.4052 55.2795C53.9387 54.1131 55.2277 52.6556 56.1987 50.9904C53.5812 53.2898 50.2319 54.5813 46.7503 54.6339C43.2687 54.6864 39.8821 53.4965 37.1965 51.2772C34.511 49.0578 32.7019 45.9539 32.093 42.5209C31.4841 39.088 32.1151 35.55 33.8732 32.5404C32.683 33.5843 31.6693 34.8142 30.8716 36.1824Z" fill="#231F20"/>
<path opacity="0.2" d="M9.15843 71.0233C24.5835 88.4303 70.9938 91.7506 101.203 123.703C102.146 120.781 102.872 117.793 103.374 114.763C73.1802 85.7157 29.3536 82.0447 14.4501 65.2264C1.11129 50.1737 3.18769 27.7739 15.2259 12.188C-1.2843 27.513 -5.946 53.9782 9.15843 71.0233Z" fill="#231F20"/>
<path d="M200.89 132.525L194.663 130.626C191.952 133.899 189.704 143.38 189.704 143.38L181.181 157.248C180.725 157.465 180.334 157.798 180.047 158.215C179.761 158.631 179.589 159.115 179.549 159.619C179.509 160.123 179.602 160.629 179.819 161.086C180.036 161.542 180.369 161.933 180.785 162.22C181.201 162.506 181.685 162.678 182.189 162.717C182.692 162.757 183.197 162.663 183.652 162.445C184.108 162.227 184.498 161.893 184.784 161.476C185.069 161.059 185.24 160.574 185.279 160.07L198.179 144.389L200.89 132.525Z" fill="#FFB6B6"/>
<path d="M200.771 134.039L201.922 124.599L199.342 120.285C198.833 119.44 198.097 118.754 197.219 118.306C196.341 117.857 195.355 117.663 194.373 117.747C193.042 117.868 191.807 118.491 190.917 119.49C190.028 120.489 189.55 121.788 189.581 123.126C189.678 127.184 190.316 132.314 192.807 133.716L192.832 133.731L200.771 134.039Z" fill="#F98614"/>
<path d="M218.364 219.337L214.63 221.142L205.899 207.577L211.411 204.913L218.364 219.337Z" fill="#FFB6B6"/>
<path d="M220.376 223.175L208.892 228.725L208.822 228.58C208.25 227.393 208.172 226.027 208.606 224.782C209.039 223.538 209.949 222.517 211.134 221.944L212.464 219.336L217.146 219.038L218.148 218.553L220.376 223.175Z" fill="#2F2E41"/>
<path d="M190.566 224.394L186.419 224.393L184.447 208.377L190.567 208.377L190.566 224.394Z" fill="#FFB6B6"/>
<path d="M190.712 228.725L177.96 228.725V228.563C177.96 227.245 178.483 225.981 179.414 225.049C180.345 224.117 181.607 223.594 182.924 223.593H182.924L185.253 221.824L189.599 223.594L190.712 223.594L190.712 228.725Z" fill="#2F2E41"/>
<path d="M186.456 150.112L181.705 182.925L182.998 187.242L181.301 190.3L183.793 213.315L182.781 215.545L185.607 217.291H191.359L191.664 192.979L193.084 189.41V187.442L195.976 172.618L196.643 195.696L197.567 197.479C201.006 205.293 205.639 207.851 208.914 213.691L214.665 210.572L214.545 208.245C215.7 207.659 212.81 205.947 212.532 204.681L212.029 202.413L208.674 195.454L208.546 193.003L209.464 176.335L209.032 153.89L201.488 148.113L186.456 150.112Z" fill="#2F2E41"/>
<path d="M193.923 110.312C198.049 110.312 201.395 106.963 201.395 102.83C201.395 98.6982 198.049 95.3484 193.923 95.3484C189.796 95.3484 186.451 98.6982 186.451 102.83C186.451 106.963 189.796 110.312 193.923 110.312Z" fill="#FFB6B6"/>
<path d="M182.882 164.267L182.773 164.229L184.22 159.523C184.03 158.916 183.994 158.272 184.114 157.648C184.235 157.024 184.508 156.44 184.91 155.948C184.676 155.543 183.712 153.629 185.282 152.002C185.188 151.528 184.716 148.72 186.364 147.348C186.364 147.348 189.562 123.08 191.355 116.67C191.407 116.201 190.987 112.372 193.399 112.222C194.672 112.143 196.581 112.022 199.446 111.837C199.816 111.81 200.033 112.436 200.362 113.455C200.584 114.144 199.44 115.086 199.717 115.07L199.736 115.069L199.755 115.074C202.428 115.792 204.773 117.409 206.395 119.654C208.017 121.899 208.818 124.635 208.663 127.401L207.811 141.902C207.94 142.485 210.653 159.021 209.944 160.796C209.541 161.803 210.227 162.43 210.728 162.888C210.986 163.124 211.173 163.294 211.147 163.481C211.136 163.532 211.113 163.58 211.079 163.62C211.045 163.66 211.002 163.69 210.953 163.709C210.5 163.936 210.751 165.492 211.015 166.419L211.042 166.514L210.954 166.559C210.853 166.611 202.745 162.887 192.895 162.887C189.182 162.887 187.036 165.718 182.882 164.267Z" fill="#F98614"/>
<path d="M199.844 107.431C199.767 107.391 199.698 107.335 199.643 107.267C199.589 107.198 199.549 107.119 199.527 107.035L199.42 106.601L199.748 106.942C199.923 106.797 200.057 106.608 200.136 106.394C200.215 106.181 200.236 105.95 200.198 105.726C200.16 105.501 200.063 105.291 199.917 105.116C199.772 104.941 199.583 104.807 199.369 104.729C199.225 104.681 199.077 104.645 198.927 104.621C198.77 104.596 198.615 104.559 198.464 104.509C198.111 104.356 197.806 104.109 197.583 103.795C197.359 103.481 197.226 103.111 197.198 102.727C197.149 102.049 197.224 101.367 197.419 100.716C194.122 101.223 190.76 101.122 187.5 100.418C186.997 100.311 186.516 100.122 186.076 99.8569C185.271 99.3788 184.601 98.7034 184.128 97.8942C184.066 97.7851 184.04 97.6588 184.054 97.5338C184.068 97.4089 184.122 97.2918 184.208 97.1997C184.267 97.1355 184.339 97.0841 184.419 97.0488C184.499 97.0135 184.586 96.995 184.673 96.9945L184.554 96.671C184.517 96.5699 184.507 96.4607 184.525 96.3546C184.544 96.2484 184.59 96.1491 184.66 96.0667C184.729 95.9844 184.819 95.9219 184.92 95.8857C185.022 95.8494 185.131 95.8408 185.237 95.8605L185.66 95.9397L185.619 95.6584C185.604 95.5535 185.616 95.4465 185.655 95.3479C185.694 95.2493 185.757 95.1625 185.84 95.0961C185.922 95.0297 186.021 94.9859 186.125 94.9692C186.23 94.9525 186.337 94.9633 186.436 95.0006C186.526 95.0348 186.623 95.0488 186.72 95.0418C186.817 95.0348 186.911 95.0069 186.996 94.9601C187.081 94.9132 187.154 94.8484 187.212 94.7703C187.269 94.6921 187.309 94.6024 187.329 94.5073L187.474 93.8001L187.489 93.7626C188.204 92.5691 189.579 91.7015 191.26 91.3822C192.759 91.0977 194.29 91.2414 195.77 91.3803C196.398 91.3931 197.015 91.5491 197.574 91.8365C197.827 91.9825 198.034 92.1961 198.173 92.4533C198.312 92.7105 198.376 93.0013 198.36 93.2932C199.818 92.8444 201.382 93.7386 202.155 94.8654C203.075 96.2055 203.223 97.8866 203.25 99.2015C203.314 102.309 202.674 104.852 201.35 106.76C201.16 107.083 200.873 107.339 200.53 107.489C200.442 107.519 200.351 107.534 200.259 107.533C200.114 107.534 199.972 107.499 199.844 107.431Z" fill="#2F2E41"/>
<path d="M200.113 136.89L194.628 133.378C191.136 135.797 186.416 144.318 186.416 144.318L174.471 155.369C173.973 155.454 173.507 155.669 173.119 155.993C172.731 156.316 172.434 156.736 172.26 157.211C172.085 157.685 172.039 158.197 172.125 158.695C172.211 159.194 172.426 159.66 172.75 160.049C173.073 160.437 173.493 160.733 173.967 160.907C174.441 161.081 174.952 161.127 175.45 161.041C175.947 160.954 176.413 160.738 176.8 160.413C177.188 160.089 177.483 159.668 177.656 159.193L194.304 147.58L200.113 136.89Z" fill="#FFB6B6"/>
<path d="M199.59 138.315L203.243 129.537L201.921 124.685C201.659 123.734 201.135 122.875 200.41 122.206C199.686 121.537 198.789 121.084 197.82 120.898C196.506 120.656 195.149 120.922 194.023 121.643C192.897 122.364 192.087 123.487 191.756 124.783C190.756 128.716 189.988 133.829 192.008 135.852L192.029 135.873L199.59 138.315Z" fill="#F98614"/>
</g>
<defs>
<clipPath id="clip0_830_7730">
<rect width="260" height="229.47" fill="white"/>
</clipPath>
</defs>
</svg>
