<svg width="31" height="30" viewBox="0 0 31 30" fill="none" xmlns="http://www.w3.org/2000/svg">
<path d="M15.5 3C10.5295 3 6.50004 7.02944 6.50004 12V17.3787L5.43938 18.4393C5.01039 18.8683 4.88205 19.5135 5.11422 20.074C5.3464 20.6345 5.89335 21 6.50004 21H24.5C25.1067 21 25.6537 20.6345 25.8859 20.074C26.118 19.5135 25.9897 18.8683 25.5607 18.4393L24.5 17.3787V12C24.5 7.02944 20.4706 3 15.5 3Z" fill="#111827"/>
<path d="M15.5 27C13.0147 27 11 24.9853 11 22.5H20C20 24.9853 17.9853 27 15.5 27Z" fill="#111827"/>
</svg>
