<svg width="20" height="21" viewBox="0 0 20 21" fill="none" xmlns="http://www.w3.org/2000/svg">
<g id="Icon/Outline/cash">
<path id="Icon" d="M14.1667 8.10824V6.44157C14.1667 5.52109 13.4205 4.7749 12.5 4.7749H4.16667C3.24619 4.7749 2.5 5.52109 2.5 6.44157V11.4416C2.5 12.362 3.24619 13.1082 4.16667 13.1082H5.83333M7.5 16.4416H15.8333C16.7538 16.4416 17.5 15.6954 17.5 14.7749V9.7749C17.5 8.85443 16.7538 8.10824 15.8333 8.10824H7.5C6.57953 8.10824 5.83333 8.85443 5.83333 9.7749V14.7749C5.83333 15.6954 6.57953 16.4416 7.5 16.4416ZM13.3333 12.2749C13.3333 13.1954 12.5871 13.9416 11.6667 13.9416C10.7462 13.9416 10 13.1954 10 12.2749C10 11.3544 10.7462 10.6082 11.6667 10.6082C12.5871 10.6082 13.3333 11.3544 13.3333 12.2749Z" stroke="#111827" stroke-width="2" stroke-linecap="round" stroke-linejoin="round"/>
</g>
</svg>
