<svg width="21" height="21" viewBox="0 0 21 21" fill="none" xmlns="http://www.w3.org/2000/svg">
<path fill-rule="evenodd" clip-rule="evenodd" d="M10.7929 15.8155C10.4024 15.425 10.4024 14.7918 10.7929 14.4013L15.0858 10.1084L10.7929 5.81551C10.4024 5.42498 10.4024 4.79182 10.7929 4.40129C11.1834 4.01077 11.8166 4.01077 12.2071 4.40129L17.2071 9.40129C17.5976 9.79182 17.5976 10.425 17.2071 10.8155L12.2071 15.8155C11.8166 16.206 11.1834 16.206 10.7929 15.8155Z" fill="#16171D"/>
<path fill-rule="evenodd" clip-rule="evenodd" d="M4.79289 15.8155C4.40237 15.425 4.40237 14.7918 4.79289 14.4013L9.08579 10.1084L4.79289 5.81551C4.40237 5.42498 4.40237 4.79182 4.79289 4.40129C5.18342 4.01077 5.81658 4.01077 6.20711 4.40129L11.2071 9.40129C11.5976 9.79182 11.5976 10.425 11.2071 10.8155L6.20711 15.8155C5.81658 16.206 5.18342 16.206 4.79289 15.8155Z" fill="#16171D"/>
</svg>
