<svg width="33" height="31" viewBox="0 0 33 31" fill="none" xmlns="http://www.w3.org/2000/svg">
<path fill-rule="evenodd" clip-rule="evenodd" d="M9.5 5.75C9.5 5.19772 9.94772 4.75 10.5 4.75H22.5C23.0523 4.75 23.5 5.19772 23.5 5.75C23.5 6.30228 23.0523 6.75 22.5 6.75H10.5C9.94772 6.75 9.5 6.30228 9.5 5.75Z" fill="#62636C"/>
<path fill-rule="evenodd" clip-rule="evenodd" d="M9.5 10.75C9.5 10.1977 9.94772 9.75 10.5 9.75H22.5C23.0523 9.75 23.5 10.1977 23.5 10.75C23.5 11.3023 23.0523 11.75 22.5 11.75H10.5C9.94772 11.75 9.5 11.3023 9.5 10.75Z" fill="#62636C"/>
<path fill-rule="evenodd" clip-rule="evenodd" d="M9.5 15.75C9.5 15.1977 9.94772 14.75 10.5 14.75H22.5C23.0523 14.75 23.5 15.1977 23.5 15.75C23.5 16.3023 23.0523 16.75 22.5 16.75H10.5C9.94772 16.75 9.5 16.3023 9.5 15.75Z" fill="#62636C"/>
<line x1="-1.31134e-07" y1="28.75" x2="33" y2="28.75" stroke="#62636C" stroke-width="3"/>
</svg>
