<svg width="34" height="32" viewBox="0 0 34 32" fill="none" xmlns="http://www.w3.org/2000/svg">
<path d="M11.5 10.4462V9.23909L10.6464 10.0926L10.3536 10.3855C10.1583 10.5808 9.84171 10.5808 9.64645 10.3855L9.29289 10.7391L9.64645 10.3855C9.45118 10.1903 9.45118 9.87369 9.64645 9.67843L9.29289 9.32488L9.64645 9.67843L16.6464 2.67843L16.2929 2.32488L16.6464 2.67843C16.8417 2.48317 17.1583 2.48317 17.3536 2.67843L24.3536 9.67843C24.5488 9.87369 24.5488 10.1903 24.3536 10.3855C24.1583 10.5808 23.8417 10.5808 23.6464 10.3855L23.3536 10.0926L22.5 9.23909V10.4462V17.032C22.5 17.3081 22.2761 17.532 22 17.532H20C19.7239 17.532 19.5 17.3081 19.5 17.032V15.032C19.5 14.2036 18.8284 13.532 18 13.532H16C15.1716 13.532 14.5 14.2036 14.5 15.032V17.032C14.5 17.3081 14.2761 17.532 14 17.532H12C11.7239 17.532 11.5 17.3081 11.5 17.032V10.4462Z" fill="#62636C" stroke="#62636C"/>
<line x1="0.5" y1="29.532" x2="33.5" y2="29.532" stroke="#62636C" stroke-width="3"/>
</svg>
