<svg width="20" height="20" viewBox="0 0 20 20" fill="none" xmlns="http://www.w3.org/2000/svg">
<path fill-rule="evenodd" clip-rule="evenodd" d="M3.9999 4C3.9999 2.89543 4.89533 2 5.9999 2H13.9999C15.1045 2 15.9999 2.89543 15.9999 4V16C16.5522 16 16.9999 16.4477 16.9999 17C16.9999 17.5523 16.5522 18 15.9999 18H12.9999C12.4476 18 11.9999 17.5523 11.9999 17V15C11.9999 14.4477 11.5522 14 10.9999 14H8.9999C8.44762 14 7.9999 14.4477 7.9999 15V17C7.9999 17.5523 7.55219 18 6.9999 18H3.9999C3.44762 18 2.9999 17.5523 2.9999 17C2.9999 16.4477 3.44762 16 3.9999 16V4ZM6.9999 5H8.9999V7H6.9999V5ZM8.9999 9H6.9999V11H8.9999V9ZM10.9999 5H12.9999V7H10.9999V5ZM12.9999 9H10.9999V11H12.9999V9Z" fill="#111827"/>
</svg>
