<svg width="20" height="20" viewBox="0 0 20 20" fill="none" xmlns="http://www.w3.org/2000/svg">
<path d="M1.9999 3C1.9999 2.44772 2.44762 2 2.9999 2H5.15277C5.64161 2 6.0588 2.35341 6.13917 2.8356L6.87848 7.27147C6.95065 7.70451 6.73196 8.13397 6.3393 8.3303L4.79116 9.10437C5.90746 11.8783 8.12158 14.0924 10.8955 15.2087L11.6696 13.6606C11.8659 13.2679 12.2954 13.0492 12.7284 13.1214L17.1643 13.8607C17.6465 13.9411 17.9999 14.3583 17.9999 14.8471V17C17.9999 17.5523 17.5522 18 16.9999 18H14.9999C7.8202 18 1.9999 12.1797 1.9999 5V3Z" fill="#111827"/>
<path d="M16.707 3.29289C17.0975 3.68342 17.0975 4.31658 16.707 4.70711L15.4141 6L16.707 7.29289C17.0975 7.68342 17.0975 8.31658 16.707 8.70711C16.3165 9.09763 15.6833 9.09763 15.2928 8.70711L13.9999 7.41421L12.707 8.70711C12.3165 9.09763 11.6833 9.09763 11.2928 8.70711C10.9023 8.31658 10.9023 7.68342 11.2928 7.29289L12.5857 6L11.2928 4.70711C10.9023 4.31658 10.9023 3.68342 11.2928 3.29289C11.6833 2.90237 12.3165 2.90237 12.707 3.29289L13.9999 4.58579L15.2928 3.29289C15.6833 2.90237 16.3165 2.90237 16.707 3.29289Z" fill="#111827"/>
</svg>
