<svg width="31" height="30" viewBox="0 0 31 30" fill="none" xmlns="http://www.w3.org/2000/svg">
<g id="Icon/Solid/plus-circle">
<path id="Icon" fill-rule="evenodd" clip-rule="evenodd" d="M15.5 27C22.1274 27 27.5 21.6274 27.5 15C27.5 8.37258 22.1274 3 15.5 3C8.87258 3 3.5 8.37258 3.5 15C3.5 21.6274 8.87258 27 15.5 27ZM17 10.5C17 9.67157 16.3284 9 15.5 9C14.6716 9 14 9.67157 14 10.5V13.5H11C10.1716 13.5 9.5 14.1716 9.5 15C9.5 15.8284 10.1716 16.5 11 16.5H14V19.5C14 20.3284 14.6716 21 15.5 21C16.3284 21 17 20.3284 17 19.5V16.5H20C20.8284 16.5 21.5 15.8284 21.5 15C21.5 14.1716 20.8284 13.5 20 13.5H17V10.5Z" fill="#111827"/>
</g>
</svg>
