<svg width="25" height="25" viewBox="0 0 25 25" fill="none" xmlns="http://www.w3.org/2000/svg">
<g clip-path="url(#clip0_1765_366)">
<path d="M9.5 5.00011C9.50021 4.47575 9.36299 3.9605 9.10201 3.50571C8.84102 3.05091 8.46539 2.67247 8.01256 2.4081C7.55973 2.14373 7.04551 2.00266 6.52117 1.99896C5.99683 1.99526 5.48067 2.12905 5.02416 2.38701C4.56764 2.64496 4.18671 3.01807 3.91933 3.46913C3.65195 3.9202 3.50747 4.43346 3.50028 4.95777C3.4931 5.48207 3.62346 5.99911 3.87837 6.45733C4.13329 6.91555 4.50385 7.29896 4.95313 7.56933V17.4037C4.3812 17.7339 3.93421 18.2436 3.68149 18.8537C3.42876 19.4639 3.38442 20.1403 3.55535 20.7782C3.72627 21.4161 4.10291 21.9798 4.62684 22.3818C5.15077 22.7839 5.79272 23.0018 6.45313 23.0018C7.11353 23.0018 7.75548 22.7839 8.27941 22.3818C8.80334 21.9798 9.17998 21.4161 9.3509 20.7782C9.52183 20.1403 9.47749 19.4639 9.22476 18.8537C8.97204 18.2436 8.52505 17.7339 7.95313 17.4037V7.62511C8.42169 7.36534 8.81223 6.98495 9.08423 6.52337C9.35623 6.0618 9.49978 5.53586 9.5 5.00011ZM6.5 3.50011C6.79667 3.50011 7.08668 3.58808 7.33336 3.7529C7.58003 3.91773 7.77229 4.15199 7.88582 4.42608C7.99935 4.70017 8.02906 5.00177 7.97118 5.29274C7.9133 5.58371 7.77044 5.85099 7.56066 6.06077C7.35088 6.27055 7.08361 6.41341 6.79264 6.47129C6.50167 6.52916 6.20006 6.49946 5.92598 6.38593C5.65189 6.2724 5.41762 6.08014 5.2528 5.83346C5.08797 5.58679 5 5.29678 5 5.00011C5 4.60228 5.15804 4.22075 5.43934 3.93945C5.72065 3.65814 6.10218 3.50011 6.5 3.50011ZM6.45313 21.5001C6.15645 21.5001 5.86644 21.4121 5.61977 21.2473C5.3731 21.0825 5.18084 20.8482 5.06731 20.5741C4.95378 20.3 4.92407 19.9984 4.98195 19.7075C5.03983 19.4165 5.18269 19.1492 5.39247 18.9394C5.60224 18.7297 5.86952 18.5868 6.16049 18.5289C6.45146 18.4711 6.75306 18.5008 7.02715 18.6143C7.30124 18.7278 7.53551 18.9201 7.70033 19.1668C7.86515 19.4134 7.95313 19.7034 7.95313 20.0001C7.95313 20.3979 7.79509 20.7795 7.51379 21.0608C7.23248 21.3421 6.85095 21.5001 6.45313 21.5001ZM20 17.4037V7.81261C19.9988 6.66924 19.544 5.57306 18.7355 4.76458C17.927 3.9561 16.8309 3.50135 15.6875 3.50011H14.0469V0.965576L9.92844 5.00011L14.0469 9.03464V6.50011H15.6875C16.0356 6.50011 16.3694 6.63839 16.6156 6.88453C16.8617 7.13067 17 7.46451 17 7.81261V17.4037C16.4281 17.7339 15.9811 18.2436 15.7284 18.8537C15.4756 19.4639 15.4313 20.1403 15.6022 20.7782C15.7731 21.4161 16.1498 21.9798 16.6737 22.3818C17.1976 22.7839 17.8396 23.0018 18.5 23.0018C19.1604 23.0018 19.8024 22.7839 20.3263 22.3818C20.8502 21.9798 21.2269 21.4161 21.3978 20.7782C21.5687 20.1403 21.5244 19.4639 21.2716 18.8537C21.0189 18.2436 20.5719 17.7339 20 17.4037ZM18.5 21.5001C18.2033 21.5001 17.9133 21.4121 17.6666 21.2473C17.42 21.0825 17.2277 20.8482 17.1142 20.5741C17.0007 20.3 16.9709 19.9984 17.0288 19.7075C17.0867 19.4165 17.2296 19.1492 17.4393 18.9394C17.6491 18.7297 17.9164 18.5868 18.2074 18.5289C18.4983 18.4711 18.7999 18.5008 19.074 18.6143C19.3481 18.7278 19.5824 18.9201 19.7472 19.1668C19.912 19.4134 20 19.7034 20 20.0001C20 20.3979 19.842 20.7795 19.5607 21.0608C19.2794 21.3421 18.8978 21.5001 18.5 21.5001Z" fill="#62636C"/>
</g>
<defs>
<clipPath id="clip0_1765_366">
<rect width="24" height="24" fill="white" transform="translate(0.5 0.5)"/>
</clipPath>
</defs>
</svg>
