<svg width="33" height="30" viewBox="0 0 33 30" fill="none" xmlns="http://www.w3.org/2000/svg">
<g clip-path="url(#clip0_1765_365)">
<path d="M13.5 5.00011C13.5002 4.47575 13.363 3.9605 13.102 3.50571C12.841 3.05091 12.4654 2.67247 12.0126 2.4081C11.5597 2.14373 11.0455 2.00266 10.5212 1.99896C9.99683 1.99526 9.48067 2.12905 9.02416 2.38701C8.56764 2.64496 8.18671 3.01807 7.91933 3.46913C7.65195 3.9202 7.50747 4.43346 7.50028 4.95777C7.4931 5.48207 7.62346 5.99911 7.87837 6.45733C8.13329 6.91555 8.50385 7.29896 8.95313 7.56933V17.4037C8.3812 17.7339 7.93421 18.2436 7.68149 18.8537C7.42876 19.4639 7.38442 20.1403 7.55535 20.7782C7.72627 21.4161 8.10291 21.9798 8.62684 22.3818C9.15077 22.7839 9.79272 23.0018 10.4531 23.0018C11.1135 23.0018 11.7555 22.7839 12.2794 22.3818C12.8033 21.9798 13.18 21.4161 13.3509 20.7782C13.5218 20.1403 13.4775 19.4639 13.2248 18.8537C12.972 18.2436 12.5251 17.7339 11.9531 17.4037V7.62511C12.4217 7.36534 12.8122 6.98495 13.0842 6.52337C13.3562 6.0618 13.4998 5.53586 13.5 5.00011ZM10.5 3.50011C10.7967 3.50011 11.0867 3.58808 11.3334 3.7529C11.58 3.91773 11.7723 4.15199 11.8858 4.42608C11.9994 4.70017 12.0291 5.00177 11.9712 5.29274C11.9133 5.58371 11.7704 5.85099 11.5607 6.06077C11.3509 6.27055 11.0836 6.41341 10.7926 6.47129C10.5017 6.52916 10.2001 6.49946 9.92598 6.38593C9.65189 6.2724 9.41762 6.08014 9.2528 5.83346C9.08797 5.58679 9 5.29678 9 5.00011C9 4.60228 9.15804 4.22075 9.43934 3.93945C9.72065 3.65814 10.1022 3.50011 10.5 3.50011ZM10.4531 21.5001C10.1565 21.5001 9.86644 21.4121 9.61977 21.2473C9.3731 21.0825 9.18084 20.8482 9.06731 20.5741C8.95378 20.3 8.92407 19.9984 8.98195 19.7075C9.03983 19.4165 9.18269 19.1492 9.39247 18.9394C9.60224 18.7297 9.86952 18.5868 10.1605 18.5289C10.4515 18.4711 10.7531 18.5008 11.0272 18.6143C11.3012 18.7278 11.5355 18.9201 11.7003 19.1668C11.8652 19.4134 11.9531 19.7034 11.9531 20.0001C11.9531 20.3979 11.7951 20.7795 11.5138 21.0608C11.2325 21.3421 10.851 21.5001 10.4531 21.5001ZM24 17.4037V7.81261C23.9988 6.66924 23.544 5.57306 22.7355 4.76458C21.927 3.9561 20.8309 3.50135 19.6875 3.50011H18.0469V0.965576L13.9284 5.00011L18.0469 9.03464V6.50011H19.6875C20.0356 6.50011 20.3694 6.63839 20.6156 6.88453C20.8617 7.13067 21 7.46451 21 7.81261V17.4037C20.4281 17.7339 19.9811 18.2436 19.7284 18.8537C19.4756 19.4639 19.4313 20.1403 19.6022 20.7782C19.7731 21.4161 20.1498 21.9798 20.6737 22.3818C21.1976 22.7839 21.8396 23.0018 22.5 23.0018C23.1604 23.0018 23.8024 22.7839 24.3263 22.3818C24.8502 21.9798 25.2269 21.4161 25.3978 20.7782C25.5687 20.1403 25.5244 19.4639 25.2716 18.8537C25.0189 18.2436 24.5719 17.7339 24 17.4037ZM22.5 21.5001C22.2033 21.5001 21.9133 21.4121 21.6666 21.2473C21.42 21.0825 21.2277 20.8482 21.1142 20.5741C21.0007 20.3 20.9709 19.9984 21.0288 19.7075C21.0867 19.4165 21.2296 19.1492 21.4393 18.9394C21.6491 18.7297 21.9164 18.5868 22.2074 18.5289C22.4983 18.4711 22.7999 18.5008 23.074 18.6143C23.3481 18.7278 23.5824 18.9201 23.7472 19.1668C23.912 19.4134 24 19.7034 24 20.0001C24 20.3979 23.842 20.7795 23.5607 21.0608C23.2794 21.3421 22.8978 21.5001 22.5 21.5001Z" fill="#62636C"/>
</g>
<line x1="-1.31134e-07" y1="28" x2="33" y2="28" stroke="#62636C" stroke-width="3"/>
<defs>
<clipPath id="clip0_1765_365">
<rect width="24" height="24" fill="white" transform="translate(4.5 0.5)"/>
</clipPath>
</defs>
</svg>
