<svg width="33" height="31" viewBox="0 0 33 31" fill="none" xmlns="http://www.w3.org/2000/svg">
<path d="M20.0027 0.250732C20.2679 0.250732 20.5223 0.356089 20.7098 0.543626C20.8973 0.731162 21.0027 0.985516 21.0027 1.25073V2.25073H26.0027V8.25073H23.9837L26.7297 15.7957C26.9254 16.3033 27.0155 16.8455 26.9946 17.3891C26.9736 17.9327 26.8419 18.4663 26.6077 18.9573C26.3734 19.4483 26.0414 19.8864 25.6321 20.2447C25.2227 20.603 24.7446 20.874 24.2269 21.0412C23.7092 21.2084 23.1629 21.2683 22.6213 21.2171C22.0797 21.1659 21.5542 21.0048 21.077 20.7436C20.5998 20.4824 20.1809 20.1266 19.8459 19.698C19.5109 19.2694 19.2669 18.7769 19.1287 18.2507H14.8767C14.6494 19.1284 14.1309 19.9029 13.406 20.4473C12.6811 20.9918 11.7928 21.274 10.8866 21.2478C9.98035 21.2215 9.1099 20.8884 8.41774 20.3028C7.72559 19.7173 7.25277 18.9141 7.07669 18.0247C6.75262 17.8555 6.48115 17.6006 6.2918 17.2878C6.10245 16.975 6.00245 16.6164 6.00269 16.2507V6.25073C6.00269 5.98552 6.10804 5.73116 6.29558 5.54363C6.48312 5.35609 6.73747 5.25073 7.00269 5.25073H14.0027C14.2679 5.25073 14.5223 5.35609 14.7098 5.54363C14.8973 5.73116 15.0027 5.98552 15.0027 6.25073V11.2507C15.0027 11.5159 15.108 11.7703 15.2956 11.9578C15.4831 12.1454 15.7375 12.2507 16.0027 12.2507H18.0027C18.2679 12.2507 18.5223 12.1454 18.7098 11.9578C18.8973 11.7703 19.0027 11.5159 19.0027 11.2507V2.25073H16.0027V0.250732H20.0027ZM23.0027 15.2507C22.5774 15.2509 22.1632 15.3866 21.8202 15.6382C21.4773 15.8897 21.2235 16.2441 21.0957 16.6497C20.9679 17.0554 20.9728 17.4912 21.1095 17.894C21.2463 18.2967 21.5079 18.6453 21.8564 18.8892C22.2048 19.1331 22.6219 19.2596 23.0471 19.2503C23.4723 19.2409 23.8835 19.0963 24.2209 18.8374C24.5583 18.5784 24.8044 18.2187 24.9234 17.8104C25.0424 17.402 25.0281 16.9664 24.8827 16.5667L24.8657 16.5227C24.7192 16.1479 24.463 15.8259 24.1306 15.599C23.7983 15.3721 23.4051 15.2507 23.0027 15.2507ZM11.0027 15.2507C10.4723 15.2507 9.96355 15.4614 9.58847 15.8365C9.2134 16.2116 9.00269 16.7203 9.00269 17.2507C9.00269 17.7812 9.2134 18.2899 9.58847 18.6649C9.96355 19.04 10.4723 19.2507 11.0027 19.2507C11.5331 19.2507 12.0418 19.04 12.4169 18.6649C12.792 18.2899 13.0027 17.7812 13.0027 17.2507C13.0027 16.7203 12.792 16.2116 12.4169 15.8365C12.0418 15.4614 11.5331 15.2507 11.0027 15.2507ZM13.0027 7.25073H8.00269V9.25073H13.0027V7.25073ZM24.0027 4.25073H21.0027V6.25073H24.0027V4.25073Z" fill="#62636C"/>
<line x1="-1.31134e-07" y1="29.2495" x2="33" y2="29.2495" stroke="#62636C" stroke-width="3"/>
</svg>
