<svg width="26" height="26" viewBox="0 0 26 26" fill="none" xmlns="http://www.w3.org/2000/svg">
<circle cx="13" cy="13" r="13" fill="white"/>
<path d="M16.0025 5C16.1919 5 16.3737 5.07527 16.5077 5.20926C16.6416 5.34325 16.7169 5.52497 16.7169 5.71446V6.42892H20.2892V10.7157H18.8467L20.8086 16.1063C20.9485 16.469 21.0129 16.8563 20.9979 17.2447C20.9829 17.6331 20.8888 18.0143 20.7215 18.3651C20.5541 18.7159 20.3169 19.0289 20.0244 19.2849C19.732 19.5409 19.3904 19.7345 19.0205 19.854C18.6507 19.9735 18.2603 20.0162 17.8734 19.9797C17.4864 19.9431 17.111 19.828 16.77 19.6414C16.4291 19.4548 16.1298 19.2006 15.8904 18.8943C15.6511 18.5881 15.4767 18.2362 15.378 17.8603H12.3401C12.1777 18.4874 11.8073 19.0407 11.2894 19.4297C10.7715 19.8187 10.1368 20.0203 9.48935 20.0016C8.84189 19.9828 8.21998 19.7448 7.72547 19.3264C7.23095 18.9081 6.89313 18.3342 6.76733 17.6988C6.5358 17.5779 6.34184 17.3958 6.20656 17.1723C6.07127 16.9489 5.99983 16.6926 6 16.4314V9.28677C6 9.09728 6.07527 8.91555 6.20926 8.78157C6.34325 8.64758 6.52497 8.57231 6.71446 8.57231H11.7157C11.9052 8.57231 12.0869 8.64758 12.2209 8.78157C12.3549 8.91555 12.4302 9.09728 12.4302 9.28677V12.8591C12.4302 13.0486 12.5054 13.2303 12.6394 13.3643C12.7734 13.4983 12.9551 13.5735 13.1446 13.5735H14.5735C14.763 13.5735 14.9447 13.4983 15.0787 13.3643C15.2127 13.2303 15.288 13.0486 15.288 12.8591V6.42892H13.1446V5H16.0025ZM18.1458 15.7169C17.842 15.717 17.546 15.814 17.301 15.9937C17.056 16.1735 16.8747 16.4266 16.7834 16.7165C16.6921 17.0063 16.6955 17.3177 16.7933 17.6054C16.891 17.8931 17.0779 18.1422 17.3268 18.3165C17.5758 18.4907 17.8738 18.5811 18.1776 18.5744C18.4814 18.5678 18.7751 18.4644 19.0162 18.2794C19.2573 18.0944 19.4331 17.8374 19.5181 17.5457C19.6031 17.2539 19.593 16.9427 19.489 16.6571L19.4769 16.6257C19.3722 16.3579 19.1892 16.1279 18.9517 15.9657C18.7142 15.8036 18.4334 15.7169 18.1458 15.7169ZM9.57231 15.7169C9.19333 15.7169 8.82988 15.8675 8.56191 16.1354C8.29393 16.4034 8.14338 16.7669 8.14338 17.1458C8.14338 17.5248 8.29393 17.8883 8.56191 18.1562C8.82988 18.4242 9.19333 18.5748 9.57231 18.5748C9.95128 18.5748 10.3147 18.4242 10.5827 18.1562C10.8507 17.8883 11.0012 17.5248 11.0012 17.1458C11.0012 16.7669 10.8507 16.4034 10.5827 16.1354C10.3147 15.8675 9.95128 15.7169 9.57231 15.7169ZM11.0012 10.0012H7.42892V11.4302H11.0012V10.0012ZM18.8603 7.85784H16.7169V9.28677H18.8603V7.85784Z" fill="#16171D"/>
</svg>
