<svg width="21" height="22" viewBox="0 0 21 22" fill="none" xmlns="http://www.w3.org/2000/svg">
<path d="M14.0027 0.250732C14.2679 0.250732 14.5223 0.356089 14.7098 0.543626C14.8973 0.731162 15.0027 0.985516 15.0027 1.25073V2.25073H20.0027V8.25073H17.9837L20.7297 15.7957C20.9254 16.3033 21.0155 16.8455 20.9946 17.3891C20.9736 17.9327 20.8419 18.4663 20.6077 18.9573C20.3734 19.4483 20.0414 19.8864 19.6321 20.2447C19.2227 20.603 18.7446 20.874 18.2269 21.0412C17.7092 21.2084 17.1629 21.2683 16.6213 21.2171C16.0797 21.1659 15.5542 21.0048 15.077 20.7436C14.5998 20.4824 14.1809 20.1266 13.8459 19.698C13.5109 19.2694 13.2669 18.7769 13.1287 18.2507H8.87669C8.64941 19.1284 8.13087 19.9029 7.40598 20.4473C6.68108 20.9918 5.7928 21.274 4.88657 21.2478C3.98035 21.2215 3.1099 20.8884 2.41774 20.3028C1.72559 19.7173 1.25277 18.9141 1.07669 18.0247C0.752616 17.8555 0.48115 17.6006 0.291798 17.2878C0.102445 16.975 0.00245137 16.6164 0.00268596 16.2507V6.25073C0.00268596 5.98552 0.108043 5.73116 0.295579 5.54363C0.483115 5.35609 0.737469 5.25073 1.00269 5.25073H8.00269C8.2679 5.25073 8.52226 5.35609 8.70979 5.54363C8.89733 5.73116 9.00269 5.98552 9.00269 6.25073V11.2507C9.00269 11.5159 9.10804 11.7703 9.29558 11.9578C9.48312 12.1454 9.73747 12.2507 10.0027 12.2507H12.0027C12.2679 12.2507 12.5223 12.1454 12.7098 11.9578C12.8973 11.7703 13.0027 11.5159 13.0027 11.2507V2.25073H10.0027V0.250732H14.0027ZM17.0027 15.2507C16.5774 15.2509 16.1632 15.3866 15.8202 15.6382C15.4773 15.8897 15.2235 16.2441 15.0957 16.6497C14.9679 17.0554 14.9728 17.4912 15.1095 17.894C15.2463 18.2967 15.5079 18.6453 15.8564 18.8892C16.2048 19.1331 16.6219 19.2596 17.0471 19.2503C17.4723 19.2409 17.8835 19.0963 18.2209 18.8374C18.5583 18.5784 18.8044 18.2187 18.9234 17.8104C19.0424 17.402 19.0281 16.9664 18.8827 16.5667L18.8657 16.5227C18.7192 16.1479 18.463 15.8259 18.1306 15.599C17.7983 15.3721 17.4051 15.2507 17.0027 15.2507ZM5.00269 15.2507C4.47225 15.2507 3.96355 15.4614 3.58847 15.8365C3.2134 16.2116 3.00269 16.7203 3.00269 17.2507C3.00269 17.7812 3.2134 18.2899 3.58847 18.6649C3.96355 19.04 4.47225 19.2507 5.00269 19.2507C5.53312 19.2507 6.04183 19.04 6.4169 18.6649C6.79197 18.2899 7.00269 17.7812 7.00269 17.2507C7.00269 16.7203 6.79197 16.2116 6.4169 15.8365C6.04183 15.4614 5.53312 15.2507 5.00269 15.2507ZM7.00269 7.25073H2.00269V9.25073H7.00269V7.25073ZM18.0027 4.25073H15.0027V6.25073H18.0027V4.25073Z" fill="#62636C"/>
</svg>
