<svg width="34" height="29" viewBox="0 0 34 29" fill="none" xmlns="http://www.w3.org/2000/svg">
<path d="M6.5 6.375C6.5 5.34 7.34 4.5 8.375 4.5H22.625C23.66 4.5 24.5 5.34 24.5 6.375V14.625C24.5 15.66 23.66 16.5 22.625 16.5H8.375C7.34 16.5 6.5 15.66 6.5 14.625V6.375ZM11 6.75V6H9.5V6.75C9.5 6.94891 9.42098 7.13968 9.28033 7.28033C9.13968 7.42098 8.94891 7.5 8.75 7.5H8V9H8.75C9.34674 9 9.91903 8.76295 10.341 8.34099C10.7629 7.91903 11 7.34674 11 6.75ZM18.5 10.5C18.5 9.70435 18.1839 8.94129 17.6213 8.37868C17.0587 7.81607 16.2956 7.5 15.5 7.5C14.7044 7.5 13.9413 7.81607 13.3787 8.37868C12.8161 8.94129 12.5 9.70435 12.5 10.5C12.5 11.2956 12.8161 12.0587 13.3787 12.6213C13.9413 13.1839 14.7044 13.5 15.5 13.5C16.2956 13.5 17.0587 13.1839 17.6213 12.6213C18.1839 12.0587 18.5 11.2956 18.5 10.5ZM21.5 6H20V6.75C20 7.34674 20.2371 7.91903 20.659 8.34099C21.081 8.76295 21.6533 9 22.25 9H23V7.5H22.25C22.0511 7.5 21.8603 7.42098 21.7197 7.28033C21.579 7.13968 21.5 6.94891 21.5 6.75V6ZM11 14.25C11 13.6533 10.7629 13.081 10.341 12.659C9.91903 12.2371 9.34674 12 8.75 12H8V13.5H8.75C8.94891 13.5 9.13968 13.579 9.28033 13.7197C9.42098 13.8603 9.5 14.0511 9.5 14.25V15H11V14.25ZM21.5 15V14.25C21.5 14.0511 21.579 13.8603 21.7197 13.7197C21.8603 13.579 22.0511 13.5 22.25 13.5H23V12H22.25C21.6533 12 21.081 12.2371 20.659 12.659C20.2371 13.081 20 13.6533 20 14.25V15H21.5ZM11.75 19.5C11.2748 19.5002 10.8118 19.3499 10.4273 19.0708C10.0428 18.7916 9.75649 18.3979 9.6095 17.946C9.818 17.982 10.031 18 10.25 18H22.625C23.5201 18 24.3785 17.6444 25.0115 17.0115C25.6444 16.3785 26 15.5201 26 14.625V7.6275C26.4389 7.78266 26.8188 8.07012 27.0875 8.45026C27.3561 8.8304 27.5002 9.28451 27.5 9.75V14.625C27.5 15.2652 27.3739 15.8991 27.1289 16.4906C26.8839 17.082 26.5248 17.6195 26.0721 18.0721C25.6195 18.5248 25.082 18.8839 24.4906 19.1289C23.8991 19.3739 23.2652 19.5 22.625 19.5H11.75Z" fill="#62636C"/>
<line x1="0.5" y1="27.5" x2="33.5" y2="27.5" stroke="#62636C" stroke-width="3"/>
</svg>
